<?xml version="1.0" encoding="utf-8"?>
<svg version="1.1" id="Layer_1" xmlns="http://www.w3.org/2000/svg" xmlns:xlink="http://www.w3.org/1999/xlink" x="0px" y="0px"
	 viewBox="451.451 -28.549 1657.098 1657.098" enable-background="new 451.451 -28.549 1657.098 1657.098" xml:space="preserve">
<g>
	<g>
		<circle cx="992.682" cy="640.47" r="66.818"/>
	</g>
	<g>
		<circle cx="1558.728" cy="640.47" r="66.818"/>
	</g>
	<g>
		<path d="M1280,1600c-107.984,0-212.756-21.157-311.407-62.883c-95.268-40.295-180.819-97.973-254.279-171.432
			c-73.459-73.459-131.137-159.01-171.432-254.278C501.157,1012.757,480,907.984,480,800s21.157-212.756,62.883-311.407
			c40.295-95.268,97.973-180.819,171.432-254.279c73.46-73.459,159.011-131.137,254.279-171.432C1067.244,21.157,1172.016,0,1280,0
			s212.757,21.157,311.407,62.883c95.268,40.295,180.819,97.973,254.278,171.432c73.459,73.46,131.137,159.011,171.432,254.279
			C2058.843,587.244,2080,692.016,2080,800s-21.157,212.757-62.883,311.407c-40.295,95.268-97.973,180.819-171.432,254.278
			s-159.01,131.137-254.278,171.432C1492.757,1578.843,1387.984,1600,1280,1600z M1280,71.591
			c-401.646,0-728.409,326.763-728.409,728.409S878.354,1528.409,1280,1528.409S2008.409,1201.646,2008.409,800
			C2008.409,398.354,1681.646,71.591,1280,71.591z"/>
	</g>
	<rect x="955.65" y="1009.402" width="648.7" height="87.119"/>
	<rect x="869.21" y="442.19" width="246.945" height="72"/>
	<rect x="1435.255" y="442.19" width="246.945" height="72"/>
</g>
</svg>
