<?xml version="1.0"?>
<svg xmlns:rdf="http://www.w3.org/1999/02/22-rdf-syntax-ns#" xmlns="http://www.w3.org/2000/svg" xmlns:cc="http://web.resource.org/cc/" xmlns:dc="http://purl.org/dc/elements/1.1/" xmlns:sodipodi="http://inkscape.sourceforge.net/DTD/sodipodi-0.dtd" xmlns:svg="http://www.w3.org/2000/svg" id="Layer_1" style="enable-background:new 0 0 97.041 136.553" space="preserve" sodipodi:version="0.32" viewBox="0 0 97.041 136.553" version="1.1" sodipodi:docname="cestinopieno.svg" sodipodi:docbase="F:\openclip\svg da inviare">
  <sodipodi:namedview id="base" bordercolor="#666666" borderopacity="1.0" pagecolor="#ffffff"/>
  <g id="g3">
    <path id="path5" fill="#C6C6C6" d="m48.295 23.044c10.924 0 22.182 0.946 32.663 4.201 4.447 1.381 13.824 4.377 13.516 10.488 1.3-6.076-8.066-9.39-12.289-10.793-10.806-3.594-22.566-4.579-33.89-4.579-11.29 0-23.022 0.977-33.792 4.579-4.455 1.49-12.857 4.69-12.423 10.414 0.299-5.474 7.889-8.21 12.16-9.657 10.839-3.671 22.68-4.653 34.055-4.653"/>
    <linearGradient id="XMLID_60_" y2="79.044" gradientUnits="userSpaceOnUse" y1="79.044" x2="96.181" x1=".4395">
      <stop id="stop8" stop-color="#F2F2F2" offset="0"/>
      <stop id="stop10" stop-color="#D8D8D8" offset=".2146"/>
      <stop id="stop12" stop-color="#B6B6B6" offset=".5464"/>
      <stop id="stop14" stop-color="#A2A1A1" offset=".8202"/>
      <stop id="stop16" stop-color="#9A9999" offset="1"/>
    </linearGradient>
    <path id="path18" fill="url(#XMLID_60_)" d="m96.181 36.456c-0.529-9.325-20.749-11.749-27.064-12.666-16.528-2.4-34.175-2.2-50.476 1.66-4.656 1.103-19.103 4.338-18.156 11.56 0.7 5.342 1.4 10.685 2.1 16.026 2.333 17.798 4.666 35.598 7 53.399 0.543 4.147 1.198 8.091 1.056 12.248-0.397 11.651 14.116 14.616 23.371 16.054 11.62 1.803 23.998 1.531 35.405-1.45 5.328-1.392 16.375-4.659 16.375-11.833 0-7.308 1.036-14.271 2-21.551 2.796-21.154 5.592-42.303 8.389-63.453"/>
    <linearGradient id="XMLID_61_" y2="94.082" gradientUnits="userSpaceOnUse" y1="94.082" x2="57.857" x1="29.201">
      <stop id="stop21" stop-color="#fff" offset="0"/>
      <stop id="stop23" stop-color="#F7F7F7" offset=".1635"/>
      <stop id="stop25" stop-color="#E3E2E2" offset=".4124"/>
      <stop id="stop27" stop-color="#C1C0C0" offset=".714"/>
      <stop id="stop29" stop-color="#9A9999" offset="1"/>
    </linearGradient>
    <path id="path31" fill="url(#XMLID_61_)" d="m42.581 73.565c0.369 7.982 11.897 10.229 14.28 17.691 0.993 3.108 1.824 8.118-0.508 10.892-1.7 2.021-4.618 2.221-6.988 2.919-8.005 2.356-5.823 13.795-2.577 19.34 1.302 2.222 7.083 8.905 10.42 8.035-3.398 0.886-8.741-0.57-11.998-1.391-6.106-1.538-12.625-4.899-14.112-11.576-1.637-7.357 0.102-16.878 4.581-22.995 2.937-4.011 7.663-6.275 10.508-10.269 9.021-12.662-20.855-12.139-16.562-24.43 2.055-5.883 9.194-6.574 14.518-6.278 3.444 0.192 9.571 0.299 12.666 2.079-1.224-0.705-5.903 1.867-6.893 2.425-4.999 2.829-7.598 7.844-7.335 13.563"/>
    <linearGradient id="XMLID_62_" y2="81.527" gradientUnits="userSpaceOnUse" y1="81.527" x2="94.973" x1="1.2915">
      <stop id="stop34" stop-color="#fff" offset="0"/>
      <stop id="stop36" stop-color="#8F8D8D" offset="1"/>
    </linearGradient>
    <path id="path38" fill="url(#XMLID_62_)" d="m81.946 27.077c2.901 14.555 3.567 30.35 3.28 45.172-0.121 6.304-0.51 12.981-5.077 17.763-4.552 4.763-8.333 9.252-11.424 15.168-2.271 4.345-4.036 9.475-8.974 11.388-8.992 3.478-21.455 2.737-30.831 2.451-3.769-0.116-7.495-0.842-10.99-2.277-1.231-2.038-2.511-4.213-3.075-6.552-0.66-2.741 0.742-4.973 1.28-7.582 1.278-6.198-1.117-12.744-2.463-18.713-1.683-7.461-3.166-14.984-4.052-22.583-1.306-11.193-1.064-22.49 2.281-33.323-2.968 1.113-11.168 4.08-10.58 8.559 0.199 1.519 0.398 3.037 0.597 4.556 0.98 7.468 1.959 14.936 2.94 22.404 2.156 16.433 4.313 32.867 6.469 49.299 0.742 5.663-1.001 11.145 4.197 15.252 11.076 8.754 29.798 8.625 42.998 7.175 9.224-1.014 25.914-3.431 26.244-15.317 0.115-4.131 0.711-8.145 1.242-12.243l6.48-49.831c0.797-6.13 1.594-12.258 2.391-18.387 1.001-7.692-6.346-10.295-12.933-12.385"/>
    <g id="g40">
      <linearGradient id="XMLID_63_" y2="125.31" gradientUnits="userSpaceOnUse" y1="125.31" x2="84.934" x1="11.648">
        <stop id="stop43" stop-color="#9C9C9C" offset="0"/>
        <stop id="stop45" offset="1"/>
      </linearGradient>
      <path id="path47" fill="url(#XMLID_63_)" d="m48.105 125.35c-11.148 0-27.725-0.623-36.393-8.921-0.475 6.727 1.627 10.082 7.906 12.983 8.784 4.057 19.072 5.097 28.634 5.097s19.85-1.04 28.634-5.097c6.244-2.887 8.652-6.507 7.922-13.294-8.381 8.67-25.628 9.23-36.703 9.23"/>
      <linearGradient id="XMLID_64_" y2="50.131" gradientUnits="userSpaceOnUse" y1="50.131" x2="94.449" x1="2.1299">
        <stop id="stop50" stop-color="#9C9C9C" offset="0"/>
        <stop id="stop52" offset="1"/>
      </linearGradient>
      <path id="path54" fill="url(#XMLID_64_)" d="m93.361 50.893c0.362-3.855 0.725-7.711 1.088-11.567-0.731 5.745-9.607 8.405-14.108 9.751-10.313 3.087-21.323 4.015-32.046 4.015-10.755 0-21.805-0.931-32.146-4.046-4.476-1.348-13.403-4.048-14.02-9.821 0.281 2.875-0.408 11.064 2.171 12.467 8.105 4.41 17.543 6.58 26.603 7.882 19.327 2.774 45.423 2.478 62.458-8.681"/>
    </g>
    <g id="g56">
      <linearGradient id="XMLID_65_" y2="37.252" gradientUnits="userSpaceOnUse" y1="37.252" x2="94.386" x1="1.979">
        <stop id="stop59" stop-color="#4A4949" offset="0"/>
        <stop id="stop61" stop-color="#4C4B4B" offset=".014"/>
        <stop id="stop63" stop-color="#6F6E6E" offset=".2972"/>
        <stop id="stop65" stop-color="#888787" offset=".5641"/>
        <stop id="stop67" stop-color="#979797" offset=".8058"/>
        <stop id="stop69" stop-color="#9C9C9C" offset="1"/>
      </linearGradient>
      <path id="path71" fill="url(#XMLID_65_)" d="m94.386 37.253c0 5.893-9.191 8.796-13.535 10.146-10.484 3.254-21.742 4.202-32.669 4.202s-22.185-0.948-32.667-4.202c-4.345-1.349-13.536-4.254-13.536-10.146 0-5.888 9.195-8.793 13.536-10.142 10.482-3.256 21.74-4.207 32.667-4.207s22.187 0.951 32.669 4.207c4.338 1.349 13.535 4.254 13.535 10.142"/>
      <path id="path73" fill="#7C7C7C" d="m21.927 25.458c-5.23 3.479-4.108 8.229-4.108 13.666 0 2.857 1.475 5.639 2.156 8.366 0.612 2.444 6.84 2.497 9.24 2.836 8.469 1.193 17.069 1.512 25.609 1.125 4.678-0.211 19.804 0.166 21.782-4.287 2.143-4.824 5.749-9.696 2.722-15.15-0.819-1.479-2.108-2.554-3.23-3.789-2.057-2.271-1.711-2.845-5.21-3.46-15.974-2.814-33.087-2.723-48.961 0.693"/>
      <path id="path75" fill="#A0A0A0" d="m65.501 50.539c-3.418 0.122-10.491 1.398-8.115-3.595 2.249-4.729-4.618-8.429-3.757-13.577 0.607-3.635 4.905-4.71 7.802-5.885 1.266-0.513 2.973-1.175 3.499-2.573 0.658-1.749-10.49-1.871-12.323-1.931-5.083-0.167-10.172-0.041-15.24 0.357-1.431 0.114-6.377-0.292-6.015 1.574 0.222 1.136 1.073 1.877 2.086 2.331 2.267 1.017 5.066 0.865 7.129 2.351 1.981 1.426 1.158 4.04 1.749 6.098 0.776 2.709 4.08 5.694 3.808 8.573-0.441 4.707-12.224 5.719-15.261 6.277 11.471 1.438 23.166 1.438 34.638 0"/>
      <linearGradient id="XMLID_66_" y2="430.1" gradientUnits="userSpaceOnUse" y1="430.1" gradientTransform="matrix(43.996 45.746 45.746 -43.996 -7211.7 31888)" x2="-281.35" x1="-282.72">
        <stop id="stop78" stop-color="#7C7C7C" offset="0"/>
        <stop id="stop80" stop-color="#000042" offset="1"/>
      </linearGradient>
      <path id="path82" fill="url(#XMLID_66_)" d="m38.188 28.556c-8.507 4.351-13.656 10.84-15.692 20.138 3.659 0.594 7.817 1.997 11.476 1.239 1.351-0.28 3.175 0.062 2.833-1.573-0.34-1.627-0.52-3.288-0.544-4.949-0.073-4.961 1.301-9.854 3.899-14.08-0.625-0.339-1.284-0.597-1.972-0.775"/>
    </g>
    <linearGradient id="XMLID_67_" y2="430.16" gradientUnits="userSpaceOnUse" y1="430.16" gradientTransform="matrix(43.996 45.746 45.746 -43.996 -7211.7 31888)" x2="-281.32" x1="-282.73">
      <stop id="stop85" stop-color="#A0A0A0" offset="0"/>
      <stop id="stop87" stop-color="#005" offset="1"/>
    </linearGradient>
    <path id="path89" fill="url(#XMLID_67_)" d="m37.01 49.254c-1.578 0.384-3.167 0.716-4.761 1.023 1.781 0.291 3.56 0.579 5.34 0.868-0.233-0.618-0.426-1.248-0.579-1.891m4.802-22.328c-1.237 0.476-2.444 1.026-3.624 1.63 2.499 0.703 1.978 0.527 3.624-1.63"/>
    <g id="g91" stroke="#7F7F7F" fill="none">
      <path id="path93" d="m3.262 60.998c2.483 1.432 18.454 9.976 46.615 10.417 17.889 0.28 33.263-4.191 43.604-9.782"/>
      <path id="path95" d="m2.92 60.795s0.114 0.071 0.342 0.203"/>
      <path id="path97" d="m4.334 70.076c3.129 1.757 18.987 9.855 46.383 10.285 16.566 0.259 30.976-3.557 41.228-8.563"/>
      <path id="path99" d="m6.163 80.394c5.773 2.813 20.782 8.822 44.275 9.189 15.904 0.248 29.82-3.258 39.98-7.968"/>
      <path id="path101" d="m7.225 89.594c5.268 2.655 20.509 9.11 44.888 9.491 14.255 0.225 26.912-2.571 36.699-6.545"/>
      <path id="path103" d="m8.542 99.31c6.385 2.959 21.029 8.372 43.291 8.721 13.897 0.217 26.276-2.434 35.958-6.247"/>
      <path id="path105" d="m9.797 109.38c6.938 3.034 21.126 7.829 42.037 8.157 13.256 0.207 25.13-2.195 34.6-5.727"/>
      <line id="line107" y1="117.25" x2="49.04" x1="49.04" y2="71.415"/>
      <line id="line109" y1="71.135" x2="37.3" x1="37.3" y2="116.42"/>
      <line id="line111" y1="68.899" x2="26.4" x1="26.4" y2="114.46"/>
      <line id="line113" y1="67.501" x2="19.133" x1="18.015" y2="113.06"/>
      <line id="line115" y1="64.427" x2="13.264" x1="10.188" y2="110.27"/>
      <line id="line117" y1="114.18" x2="85.096" x1="79.506" y2="65.265"/>
      <line id="line119" y1="115.02" x2="75.873" x1="73.637" y2="68.341"/>
      <line id="line121" y1="116.69" x2="67.768" x1="67.208" y2="70.856"/>
      <line id="line123" y1="117.25" x2="59.661" x1="58.543" y2="71.694"/>
    </g>
    <linearGradient id="XMLID_68_" y2="453.72" gradientUnits="userSpaceOnUse" y1="453.72" gradientTransform="matrix(0 231.57 231.57 0 -1.0502e5 59600)" x2="-256.38" x1="-257.79">
      <stop id="stop126" stop-color="#fff" offset="0"/>
      <stop id="stop128" offset="1"/>
    </linearGradient>
    <path id="path130" fill="url(#XMLID_68_)" d="m9.136 29.118c13.587-6.765 30.977-7.272 45.803-6.609 7.743 0.346 15.534 1.249 23.049 3.198 5.339 1.384 14.253 3.751 16.981 9.133 1.965 3.875-0.931 12.244-1.454 16.205-1.408 10.644-2.818 21.291-4.227 31.935-1.22 9.224-2.44 18.443-3.663 27.666-0.432 3.268-0.707 6.295-0.605 9.595 0.162 5.297-4.275 8.526-8.653 10.544-13.716 6.321-31.606 6.36-46.119 3.264-5.381-1.148-11.395-2.885-15.554-6.695-4.024-3.687-2.557-6.595-3.162-11.242-1.907-14.63-3.814-29.265-5.721-43.9-1.182-9.075-2.365-18.15-3.547-27.225-1.045-8.022-2.289-11.754 6.872-15.857m39.159-7.489c-13.833 0-30.438 0.751-42.78 7.825-5.13 2.941-5.994 5.773-5.313 10.976 2.179 16.661 4.36 33.324 6.542 49.987 0.941 7.192 1.883 14.386 2.824 21.578 0.523 3.99-0.731 9.279 1.143 12.733 5.711 10.533 25.178 11.577 35.337 11.786 11.574 0.239 30.344-0.349 38.551-10.243 2.828-3.409 1.326-7.002 1.853-10.956 0.486-3.672 0.974-7.345 1.46-11.016 1.821-13.71 3.64-27.421 5.459-41.132 1.178-8.869 2.354-17.74 3.533-26.61 0.675-5.094-8.189-8.475-11.638-9.72-11.679-4.213-24.649-5.209-36.971-5.209"/>
    <g id="g132">
      <path id="path134" fill="none" d="m75.598 5.93c0.797-2.086-2.751-3.443-3.548-1.356-0.799 2.086 2.751 3.444 3.548 1.356z"/>
      <path id="path136" fill="none" d="m34.554 11.726c0.049 0.255 0.098 0.512 0.147 0.768-0.047-0.258-0.097-0.512-0.147-0.768z"/>
      <path id="path138" fill="#C68526" d="m56.547 7.431c0.439-0.263 0.894-0.51 1.36-0.731-0.914-0.35-1.827-0.698-2.741-1.048-1.854-0.709-4.117-1.672-6.144-1.716-2.343 1.473-3.397 5.27-4.371 7.815-1.048 2.741-2.096 5.481-3.143 8.222 1.159 0.077 2.318 0.155 3.477 0.233 1.196-3.628 2.26-7.297 3.129-10.992 1.319-3.459 5.021-2.946 8.433-1.783z"/>
      <path id="path140" fill="#C68526" d="m44.545 7.101c1.671-4.958 5.248-5.316 9.474-3.701 2.075 0.794 4.152 1.587 6.229 2.381 0.228-0.07 0.441-0.129 0.651-0.181-1.356-0.519-2.712-1.037-4.067-1.555-3.426-1.31-8.816-4.538-11.598-0.444-1.743 2.566-2.52 6.232-3.61 9.084-0.926 2.421-1.852 4.843-2.778 7.264 0.271-0.063 0.567-0.088 0.89-0.083 1.739-4.551 3.479-9.103 5.219-13.651-0.148 0.265-0.285 0.56-0.41 0.886z"/>
      <path id="path142" fill="#C68526" d="m91.926 17.894c3.666 1.4 3.676 5.175 2.367 8.227 0.312-0.813 0.42-1.532 0.402-2.185-0.102 1.229-0.478 2.557-1.005 3.933-2.006 5.244-4.011 10.489-6.016 15.734-0.267 0.696-0.533 1.394-0.8 2.089 0.321-0.133 0.642-0.274 0.961-0.419 2.616-6.842 5.232-13.684 7.849-20.527 1.709-4.471-1.538-6.435-5.058-7.778-2.12-0.811-4.239-1.622-6.358-2.432 0.148 0.184 0.296 0.384 0.444 0.601 2.405 0.917 4.809 1.838 7.214 2.757z"/>
      <path id="path144" fill="#C68526" d="m93.192 20.869c-1.657-1.495-4.336-2.336-6.348-3.105-0.325-0.125-0.65-0.249-0.978-0.374 0.138 0.373 0.258 0.756 0.359 1.148 2.31 0.887 4.448 2.027 5.263 3.601 1.352 2.607-1.049 5.804-2.144 8.068-2.066 4.267-4.071 8.568-5.866 12.956-0.577 1.416-1.117 2.849-1.633 4.291 0.877-0.266 1.869-0.581 2.9-0.945 2.226-5.819 4.448-11.636 6.675-17.455 0.933-2.435 2.453-5.68 1.772-8.185z"/>
      <linearGradient id="XMLID_69_" y2="442.14" gradientUnits="userSpaceOnUse" y1="442.14" gradientTransform="matrix(.9341 .3571 -.3571 .9341 124.59 -431.96)" x2="150.59" x1="-24.383">
        <stop id="stop147" stop-color="#FFFA5F" offset="0"/>
        <stop id="stop149" stop-color="#9F3300" offset="1"/>
      </linearGradient>
      <path id="path151" fill="url(#XMLID_69_)" d="m44.256 4.409c1.9-4.968 6.672-3.152 10.225-1.794 2.443 0.934 4.886 1.868 7.328 2.802 0.224-0.029 0.427-0.042 0.592-0.034 0.237 0.012 0.635 0.074 1.088 0.136-3.838-1.467-7.676-2.936-11.514-4.402-4.376-1.673-7.305 0.796-8.794 4.692-1.89 4.945-3.782 9.89-5.672 14.834 0.157-0.148 0.326-0.277 0.513-0.387 1.869-5.389 3.745-10.851 6.234-15.847z"/>
      <linearGradient id="XMLID_70_" y2="444.4" gradientUnits="userSpaceOnUse" y1="444.4" gradientTransform="matrix(.9341 .3571 -.3571 .9341 124.59 -431.96)" x2="150.59" x1="-24.374">
        <stop id="stop154" stop-color="#FFFA5F" offset="0"/>
        <stop id="stop156" stop-color="#9F3300" offset="1"/>
      </linearGradient>
      <path id="path158" fill="url(#XMLID_70_)" d="m95.705 27.516c1.434-3.748 2.844-8.592-2.218-10.528-3.783-1.445-7.564-2.893-11.348-4.338 0.504 0.343 0.947 0.678 1.357 1.061 3.271 1.25 6.54 2.5 9.81 3.75 5.42 2.072 2.847 7.47 1.425 11.191-2.079 5.437-4.158 10.875-6.237 16.312 0.227-0.11 0.451-0.224 0.671-0.34 0.39-1.018 0.777-2.034 1.168-3.052 1.789-4.685 3.58-9.37 5.372-14.056z"/>
      <path id="path160" fill="#C68526" d="m45.234 3.6c2.782-4.093 8.172-0.866 11.598 0.444 1.355 0.519 2.711 1.037 4.067 1.555 0.331-0.083 0.643-0.148 0.909-0.183-2.442-0.934-4.885-1.868-7.328-2.802-3.553-1.358-8.325-3.174-10.225 1.794-2.489 4.996-4.365 10.458-6.234 15.848 0.244-0.143 0.524-0.239 0.824-0.309 0.926-2.421 1.852-4.843 2.778-7.264 1.091-2.85 1.868-6.517 3.611-9.083z"/>
      <linearGradient id="XMLID_71_" y2="442.12" gradientUnits="userSpaceOnUse" y1="442.12" gradientTransform="matrix(.9341 .3571 -.3571 .9341 124.59 -431.96)" x2="150.59" x1="-24.372">
        <stop id="stop163" stop-color="#FFFA5F" offset="0"/>
        <stop id="stop165" stop-color="#9F3300" offset="1"/>
      </linearGradient>
      <path id="path167" fill="url(#XMLID_71_)" d="m45.234 3.6c2.782-4.093 8.172-0.866 11.598 0.444 1.355 0.519 2.711 1.037 4.067 1.555 0.331-0.083 0.643-0.148 0.909-0.183-2.442-0.934-4.885-1.868-7.328-2.802-3.553-1.358-8.325-3.174-10.225 1.794-2.489 4.996-4.365 10.458-6.234 15.848 0.244-0.143 0.524-0.239 0.824-0.309 0.926-2.421 1.852-4.843 2.778-7.264 1.091-2.85 1.868-6.517 3.611-9.083z"/>
      <path id="path169" fill="#C68526" d="m84.269 14.535c2.119 0.811 4.238 1.622 6.358 2.432 3.52 1.344 6.767 3.307 5.058 7.778-2.616 6.843-5.232 13.685-7.849 20.527 0.221-0.102 0.44-0.202 0.658-0.309 2.079-5.437 4.158-10.875 6.237-16.312 1.422-3.721 3.995-9.119-1.425-11.191-3.27-1.25-6.539-2.5-9.81-3.75 0.267 0.246 0.523 0.517 0.773 0.825z"/>
      <linearGradient id="XMLID_72_" y2="444.91" gradientUnits="userSpaceOnUse" y1="444.91" gradientTransform="matrix(.9341 .3571 -.3571 .9341 124.59 -431.96)" x2="150.59" x1="-24.374">
        <stop id="stop172" stop-color="#FFFA5F" offset="0"/>
        <stop id="stop174" stop-color="#9F3300" offset="1"/>
      </linearGradient>
      <path id="path176" fill="url(#XMLID_72_)" d="m84.269 14.535c2.119 0.811 4.238 1.622 6.358 2.432 3.52 1.344 6.767 3.307 5.058 7.778-2.616 6.843-5.232 13.685-7.849 20.527 0.221-0.102 0.44-0.202 0.658-0.309 2.079-5.437 4.158-10.875 6.237-16.312 1.422-3.721 3.995-9.119-1.425-11.191-3.27-1.25-6.539-2.5-9.81-3.75 0.267 0.246 0.523 0.517 0.773 0.825z"/>
      <path id="path178" fill="#FFB600" d="m49.022 3.936c2.026 0.044 4.29 1.007 6.144 1.716 0.914 0.35 1.827 0.698 2.741 1.048 0.799-0.381 1.608-0.692 2.341-0.919-2.076-0.794-4.153-1.587-6.228-2.381-4.227-1.616-7.803-1.257-9.474 3.701 0.125-0.326 0.262-0.62 0.41-0.886-1.74 4.548-3.48 9.1-5.219 13.651 0.203 0.001 0.403 0 0.63 0.031 0.38 0.026 0.761 0.051 1.143 0.077 1.046-2.741 2.094-5.481 3.143-8.222 0.972-2.546 2.027-6.343 4.369-7.816z"/>
      <path id="path180" fill="#FFB600" d="m85.867 17.39c0.327 0.125 0.652 0.249 0.978 0.374 2.012 0.769 4.69 1.61 6.348 3.105 0.681 2.505-0.84 5.75-1.771 8.186-2.227 5.819-4.449 11.636-6.675 17.455 0.698-0.246 1.413-0.519 2.128-0.817 0.267-0.695 0.533-1.393 0.8-2.089 2.005-5.245 4.01-10.491 6.016-15.734 0.527-1.375 0.903-2.704 1.005-3.933 0.018 0.653-0.091 1.372-0.402 2.185 1.309-3.052 1.299-6.827-2.367-8.227-2.404-0.919-4.809-1.84-7.213-2.758 0.109 0.16 0.22 0.32 0.331 0.502 0.306 0.5 0.586 1.106 0.822 1.751z"/>
      <path id="path182" fill="#fff" d="m89.97 26.932c2.08-4.19-0.348-5.808-3.495-7.102 0.107 0.861 0.086 1.688-0.111 2.386 0.526 0.456 0.926 0.948 1.113 1.488 0.779 2.246-1.485 5.3-2.385 7.188-2.025 4.246-4.001 8.533-5.682 12.929-0.6 1.568-1.158 3.167-1.682 4.779 1.031-0.262 2.061-0.533 3.079-0.837 2.494-7.162 5.801-14.056 9.163-20.831z"/>
      <path id="path184" fill="#fff" d="m53.619 10.487c0.219-0.871 0.99-1.714 2.021-2.459-0.102-0.039-0.203-0.078-0.305-0.117-7.34-2.806-7.617 6.419-9.123 11.163-0.126 0.399-0.275 0.79-0.406 1.188 1.012 0.067 2.025 0.136 3.037 0.203 0.364-1.141 0.719-2.285 1.057-3.436 0.702-2.389 0.903-5.854 3.719-6.542z"/>
      <path id="path186" fill="#C68526" d="m89.346 30.208c1.095-2.265 3.495-5.461 2.144-8.068-0.814-1.573-2.953-2.713-5.263-3.601 0.05 0.193 0.097 0.39 0.135 0.584 2.616 1.038 5.063 2.485 5.112 4.676 0.058 2.636-2.319 5.769-3.39 8.014-2.095 4.392-4.138 8.827-5.876 13.373-0.307 0.803-0.597 1.614-0.885 2.426 0.173-0.052 0.339-0.102 0.523-0.158 0.516-1.442 1.056-2.875 1.633-4.291 1.795-4.387 3.8-8.688 5.867-12.955z"/>
      <linearGradient id="XMLID_73_" y2="448.94" gradientUnits="userSpaceOnUse" y1="448.94" gradientTransform="matrix(.9341 .3571 -.3571 .9341 124.59 -431.96)" x2="228.48" x1="-16.425">
        <stop id="stop189" stop-color="#FF8B3F" offset="0"/>
        <stop id="stop191" offset="1"/>
      </linearGradient>
      <path id="path193" fill="url(#XMLID_73_)" d="m89.346 30.208c1.095-2.265 3.495-5.461 2.144-8.068-0.814-1.573-2.953-2.713-5.263-3.601 0.05 0.193 0.097 0.39 0.135 0.584 2.616 1.038 5.063 2.485 5.112 4.676 0.058 2.636-2.319 5.769-3.39 8.014-2.095 4.392-4.138 8.827-5.876 13.373-0.307 0.803-0.597 1.614-0.885 2.426 0.173-0.052 0.339-0.102 0.523-0.158 0.516-1.442 1.056-2.875 1.633-4.291 1.795-4.387 3.8-8.688 5.867-12.955z"/>
      <path id="path195" fill="#C68526" d="m49.657 7.811c1.642-1.251 4.089-0.938 6.529-0.162 0.118-0.075 0.24-0.147 0.36-0.218-3.412-1.163-7.114-1.676-8.433 1.784-0.869 3.695-1.933 7.364-3.129 10.992 0.129 0.008 0.257 0.017 0.386 0.026 0.621-1.914 1.224-3.832 1.782-5.763 0.551-1.899 0.774-5.337 2.505-6.659z"/>
      <linearGradient id="XMLID_74_" y2="442.73" gradientUnits="userSpaceOnUse" y1="442.73" gradientTransform="matrix(.9341 .3571 -.3571 .9341 124.59 -431.96)" x2="228.48" x1="-16.422">
        <stop id="stop198" stop-color="#FF8B3F" offset="0"/>
        <stop id="stop200" offset="1"/>
      </linearGradient>
      <path id="path202" fill="url(#XMLID_74_)" d="m49.657 7.811c1.642-1.251 4.089-0.938 6.529-0.162 0.118-0.075 0.24-0.147 0.36-0.218-3.412-1.163-7.114-1.676-8.433 1.784-0.869 3.695-1.933 7.364-3.129 10.992 0.129 0.008 0.257 0.017 0.386 0.026 0.621-1.914 1.224-3.832 1.782-5.763 0.551-1.899 0.774-5.337 2.505-6.659z"/>
      <path id="path204" fill="#fff" d="m55.336 7.911c0.102 0.039 0.203 0.078 0.305 0.117 0.178-0.129 0.355-0.257 0.546-0.379-2.44-0.776-4.888-1.089-6.529 0.162-1.731 1.323-1.954 4.76-2.504 6.659-0.558 1.931-1.161 3.85-1.782 5.763 0.146 0.01 0.291 0.02 0.436 0.029 0.131-0.397 0.28-0.789 0.406-1.188 1.505-4.744 1.782-13.969 9.122-11.163z"/>
      <linearGradient id="XMLID_75_" y2="442.84" gradientUnits="userSpaceOnUse" y1="442.84" gradientTransform="matrix(.9341 .3571 -.3571 .9341 124.59 -431.96)" x2="228.46" x1="-16.412">
        <stop id="stop207" stop-color="#FF8B3F" offset="0"/>
        <stop id="stop209" offset="1"/>
      </linearGradient>
      <path id="path211" fill="url(#XMLID_75_)" d="m55.336 7.911c0.102 0.039 0.203 0.078 0.305 0.117 0.178-0.129 0.355-0.257 0.546-0.379-2.44-0.776-4.888-1.089-6.529 0.162-1.731 1.323-1.954 4.76-2.504 6.659-0.558 1.931-1.161 3.85-1.782 5.763 0.146 0.01 0.291 0.02 0.436 0.029 0.131-0.397 0.28-0.789 0.406-1.188 1.505-4.744 1.782-13.969 9.122-11.163z"/>
      <path id="path213" fill="#fff" d="m81.323 47.612c0.288-0.813 0.578-1.623 0.885-2.426 1.738-4.546 3.781-8.981 5.876-13.373 1.07-2.245 3.447-5.377 3.39-8.014-0.05-2.191-2.496-3.638-5.112-4.676 0.047 0.237 0.084 0.473 0.113 0.707 3.147 1.294 5.575 2.912 3.495 7.102-3.361 6.775-6.669 13.669-9.162 20.831 0.043-0.012 0.088-0.021 0.132-0.036 0.121-0.036 0.255-0.076 0.383-0.115z"/>
      <linearGradient id="XMLID_76_" y2="449.35" gradientUnits="userSpaceOnUse" y1="449.35" gradientTransform="matrix(.9341 .3571 -.3571 .9341 124.59 -431.96)" x2="228.45" x1="-16.383">
        <stop id="stop216" stop-color="#FF8B3F" offset="0"/>
        <stop id="stop218" offset="1"/>
      </linearGradient>
      <path id="path220" fill="url(#XMLID_76_)" d="m81.323 47.612c0.288-0.813 0.578-1.623 0.885-2.426 1.738-4.546 3.781-8.981 5.876-13.373 1.07-2.245 3.447-5.377 3.39-8.014-0.05-2.191-2.496-3.638-5.112-4.676 0.047 0.237 0.084 0.473 0.113 0.707 3.147 1.294 5.575 2.912 3.495 7.102-3.361 6.775-6.669 13.669-9.162 20.831 0.043-0.012 0.088-0.021 0.132-0.036 0.121-0.036 0.255-0.076 0.383-0.115z"/>
      <path id="path222" fill="#F4F2F2" d="m62.816 50.392c0.863-0.058 1.807 0.113 2.787 0.43 4.092-0.49 8.149-1.211 12.125-2.222 0.523-1.611 1.082-3.211 1.682-4.779 1.681-4.396 3.656-8.683 5.682-12.929 0.899-1.888 3.164-4.942 2.385-7.188-0.188-0.54-0.587-1.033-1.113-1.488-0.399 1.412-1.521 2.276-3.817 1.701-3.735-0.937-7.312-2.77-10.879-4.218-5.3-2.154-12.939-3.255-17.207-6.993-0.829-0.726-1.026-1.48-0.841-2.22-2.816 0.688-3.018 4.153-3.719 6.542-0.338 1.151-0.692 2.295-1.057 3.436 2.393 0.16 4.787 0.321 7.18 0.481 2.315 0.155 4.267 2.776 5.692 4.375 1.207 1.351 4.77 4.777 4.057 6.877-1.643 4.838-2.339 9.991-2.806 15.058 0.005 0.165 0.025 0.324 0.025 0.489 0 0.896-0.071 1.777-0.176 2.648z"/>
      <path id="path224" fill="#D8D8D8" d="m62.816 50.392c-0.03 0.248-0.078 0.488-0.115 0.731 0.968-0.092 1.936-0.187 2.902-0.302-0.98-0.316-1.923-0.487-2.787-0.429z"/>
      <path id="path226" fill="#C6C6C6" d="m54.689 11.432c1.216 2.626 7.563 3.686 10.014 4.575 1.999 0.727 4.015 1.414 5.984 2.214 3.033 1.231 6.045 2.528 9.097 3.708 1.277 0.495 3.679 1.742 5.104 1.133 1.597-0.687 0.441-4.583-0.012-5.602-1.638-3.682-7.065-4.773-6.01-9.02 0.991-3.985-1.966-7.236-6.023-7.425-2.23-0.104-3.879 1.412-4.852 3.285-1.161 2.236-2.067 2.428-4.583 2.14-1.607 0.045-10.273 1.664-8.719 4.992zm16.425-7.216c0.372-0.973 1.11-1.468 1.931-1.61-0.685 0-1.244 0.188-1.422 0.649 0.838-2.195 6.023-0.56 5.112 1.822 0.23-0.604-0.205-1.186-0.905-1.635 0.749 0.676 1.149 1.682 0.704 2.847-1.26 3.291-6.68 1.22-5.42-2.073zm-14.505 8.268c0.136-0.354 27.386 10.065 27.251 10.419-0.136 0.355-27.385-10.064-27.251-10.419zm27.922 8.665c-0.141 0.366-28.082-10.348-27.953-10.687 1.266-3.309 11.13-1.212 13.05-0.656 4.329 1.258 8.309 3.429 11.474 6.669 0.52 0.535 3.792 3.722 3.429 4.674zm-1.677-3.681c0.688-1.798-8.097-6.232-9.009-6.629-1.021-0.44-13.093-4.514-13.872-2.474 0.893-2.337 11.524 0.927 12.704 1.378 1.285 0.492 11.121 5.26 10.177 7.725z"/>
      <linearGradient id="XMLID_77_" y2="425.98" gradientUnits="userSpaceOnUse" y1="425.98" gradientTransform="matrix(.9341 .3571 -.3571 .9341 124.59 -431.96)" x2="200.85" x1="29.753">
        <stop id="stop229" stop-color="#fff" offset="0"/>
        <stop id="stop231" offset="1"/>
      </linearGradient>
      <path id="path233" fill="url(#XMLID_77_)" d="m65.167 6.073c3.103-0.007 3.21-5.319 7.123-5.553 3.97-0.238 7.833 3.013 7.249 7.091-0.264 1.844-1.085 2.948 0.569 4.263 0.678 0.259 1.354 0.518 2.031 0.776-0.354-0.24-0.733-0.487-1.16-0.765-2.524-1.651-0.634-3.561-0.901-6.034-0.441-4.087-5.917-7.002-9.628-5.407-1.95 0.838-3.185 2.751-3.916 4.664-0.277 0.731-1.863 0.573-3.046 0.412 0.482 0.185 0.965 0.37 1.448 0.554 0.078-0.001 0.154-0.001 0.231-0.001z"/>
      <path id="path235" fill="#C68526" d="m58.305 6.852c-0.133-0.051-0.266-0.102-0.398-0.152-0.467 0.221-0.921 0.468-1.36 0.731 0.117 0.039 0.234 0.08 0.35 0.121 0.443-0.286 0.916-0.515 1.408-0.7z"/>
      <linearGradient id="XMLID_78_" y2="434.12" gradientUnits="userSpaceOnUse" y1="434.12" gradientTransform="matrix(.9341 .3571 -.3571 .9341 124.59 -431.96)" x2="200.94" x1="29.697">
        <stop id="stop238" stop-color="#fff" offset="0"/>
        <stop id="stop240" offset="1"/>
      </linearGradient>
      <path id="path242" fill="url(#XMLID_78_)" d="m58.305 6.852c-0.133-0.051-0.266-0.102-0.398-0.152-0.467 0.221-0.921 0.468-1.36 0.731 0.117 0.039 0.234 0.08 0.35 0.121 0.443-0.286 0.916-0.515 1.408-0.7z"/>
      <path id="path244" fill="#C68526" d="m62.271 6.125c-0.457-0.175-0.914-0.35-1.372-0.525-0.21 0.052-0.424 0.111-0.651 0.181 0.362 0.139 0.723 0.277 1.084 0.414 0.313-0.03 0.625-0.053 0.939-0.07z"/>
      <linearGradient id="XMLID_79_" y2="431.64" gradientUnits="userSpaceOnUse" y1="431.64" gradientTransform="matrix(.9341 .3571 -.3571 .9341 124.59 -431.96)" x2="200.88" x1="29.735">
        <stop id="stop247" stop-color="#fff" offset="0"/>
        <stop id="stop249" offset="1"/>
      </linearGradient>
      <path id="path251" fill="url(#XMLID_79_)" d="m62.271 6.125c-0.457-0.175-0.914-0.35-1.372-0.525-0.21 0.052-0.424 0.111-0.651 0.181 0.362 0.139 0.723 0.277 1.084 0.414 0.313-0.03 0.625-0.053 0.939-0.07z"/>
      <path id="path253" fill="#C68526" d="m85.867 17.39c-0.271-0.104-0.543-0.208-0.814-0.311 0.195 0.399 0.379 0.811 0.546 1.228 0.21 0.075 0.42 0.15 0.628 0.231-0.102-0.392-0.222-0.775-0.36-1.148z"/>
      <linearGradient id="XMLID_80_" y2="434.01" gradientUnits="userSpaceOnUse" y1="434.01" gradientTransform="matrix(.9341 .3571 -.3571 .9341 124.59 -431.96)" x2="200.79" x1="29.829">
        <stop id="stop256" stop-color="#fff" offset="0"/>
        <stop id="stop258" offset="1"/>
      </linearGradient>
      <path id="path260" fill="url(#XMLID_80_)" d="m85.867 17.39c-0.271-0.104-0.543-0.208-0.814-0.311 0.195 0.399 0.379 0.811 0.546 1.228 0.21 0.075 0.42 0.15 0.628 0.231-0.102-0.392-0.222-0.775-0.36-1.148z"/>
      <path id="path262" fill="#C68526" d="m84.713 15.136c-0.148-0.217-0.296-0.417-0.444-0.601-0.305-0.117-0.61-0.233-0.915-0.35 0.121 0.165 0.254 0.364 0.397 0.583 0.319 0.122 0.641 0.246 0.962 0.368z"/>
      <linearGradient id="XMLID_81_" y2="431.64" gradientUnits="userSpaceOnUse" y1="431.64" gradientTransform="matrix(.9341 .3571 -.3571 .9341 124.59 -431.96)" x2="200.81" x1="29.803">
        <stop id="stop265" stop-color="#fff" offset="0"/>
        <stop id="stop267" offset="1"/>
      </linearGradient>
      <path id="path269" fill="url(#XMLID_81_)" d="m84.713 15.136c-0.148-0.217-0.296-0.417-0.444-0.601-0.305-0.117-0.61-0.233-0.915-0.35 0.121 0.165 0.254 0.364 0.397 0.583 0.319 0.122 0.641 0.246 0.962 0.368z"/>
      <linearGradient id="XMLID_82_" y2="430.69" gradientUnits="userSpaceOnUse" y1="430.69" gradientTransform="matrix(.9341 .3571 -.3571 .9341 124.59 -431.96)" x2="150.59" x1="-24.374">
        <stop id="stop272" stop-color="#FFFA5F" offset="0"/>
        <stop id="stop274" stop-color="#9F3300" offset="1"/>
      </linearGradient>
      <path id="path276" fill="url(#XMLID_82_)" d="m80.19 11.948c0.676 0.512 1.604 0.867 2.32 1.385 0.329 0.126 0.657 0.251 0.986 0.377-0.41-0.383-0.854-0.717-1.357-1.061-0.678-0.259-1.354-0.517-2.031-0.776 0.032 0.025 0.05 0.05 0.082 0.075z"/>
      <linearGradient id="XMLID_83_" y2="430.69" gradientUnits="userSpaceOnUse" y1="430.69" gradientTransform="matrix(.9341 .3571 -.3571 .9341 124.59 -431.96)" x2="200.85" x1="29.752">
        <stop id="stop279" stop-color="#fff" offset="0"/>
        <stop id="stop281" offset="1"/>
      </linearGradient>
      <path id="path283" fill="url(#XMLID_83_)" d="m80.19 11.948c0.676 0.512 1.604 0.867 2.32 1.385 0.329 0.126 0.657 0.251 0.986 0.377-0.41-0.383-0.854-0.717-1.357-1.061-0.678-0.259-1.354-0.517-2.031-0.776 0.032 0.025 0.05 0.05 0.082 0.075z"/>
      <linearGradient id="XMLID_84_" y2="430.69" gradientUnits="userSpaceOnUse" y1="430.69" gradientTransform="matrix(.9341 .3571 -.3571 .9341 124.59 -431.96)" x2="150.59" x1="-24.381">
        <stop id="stop286" stop-color="#FFFA5F" offset="0"/>
        <stop id="stop288" stop-color="#9F3300" offset="1"/>
      </linearGradient>
      <path id="path290" fill="url(#XMLID_84_)" d="m61.809 5.417c0.581 0.222 1.16 0.443 1.741 0.666 0.467-0.007 0.929-0.009 1.387-0.01-0.483-0.184-0.966-0.369-1.448-0.554-0.453-0.062-0.851-0.124-1.088-0.136-0.166-0.008-0.369 0.005-0.592 0.034z"/>
      <linearGradient id="XMLID_85_" y2="430.69" gradientUnits="userSpaceOnUse" y1="430.69" gradientTransform="matrix(.9341 .3571 -.3571 .9341 124.59 -431.96)" x2="200.86" x1="29.748">
        <stop id="stop293" stop-color="#fff" offset="0"/>
        <stop id="stop295" offset="1"/>
      </linearGradient>
      <path id="path297" fill="url(#XMLID_85_)" d="m61.809 5.417c0.581 0.222 1.16 0.443 1.741 0.666 0.467-0.007 0.929-0.009 1.387-0.01-0.483-0.184-0.966-0.369-1.448-0.554-0.453-0.062-0.851-0.124-1.088-0.136-0.166-0.008-0.369 0.005-0.592 0.034z"/>
      <path id="path299" fill="#C68526" d="m62.271 6.125c0.426-0.023 0.853-0.036 1.278-0.042-0.581-0.223-1.16-0.444-1.741-0.666-0.267 0.035-0.578 0.1-0.909 0.183 0.458 0.175 0.915 0.35 1.372 0.525z"/>
      <linearGradient id="XMLID_86_" y2="431.19" gradientUnits="userSpaceOnUse" y1="431.19" gradientTransform="matrix(.9341 .3571 -.3571 .9341 124.59 -431.96)" x2="150.6" x1="-24.386">
        <stop id="stop302" stop-color="#FFFA5F" offset="0"/>
        <stop id="stop304" stop-color="#9F3300" offset="1"/>
      </linearGradient>
      <path id="path306" fill="url(#XMLID_86_)" d="m62.271 6.125c0.426-0.023 0.853-0.036 1.278-0.042-0.581-0.223-1.16-0.444-1.741-0.666-0.267 0.035-0.578 0.1-0.909 0.183 0.458 0.175 0.915 0.35 1.372 0.525z"/>
      <linearGradient id="XMLID_87_" y2="431.19" gradientUnits="userSpaceOnUse" y1="431.19" gradientTransform="matrix(.9341 .3571 -.3571 .9341 124.59 -431.96)" x2="200.86" x1="29.745">
        <stop id="stop309" stop-color="#fff" offset="0"/>
        <stop id="stop311" offset="1"/>
      </linearGradient>
      <path id="path313" fill="url(#XMLID_87_)" d="m62.271 6.125c0.426-0.023 0.853-0.036 1.278-0.042-0.581-0.223-1.16-0.444-1.741-0.666-0.267 0.035-0.578 0.1-0.909 0.183 0.458 0.175 0.915 0.35 1.372 0.525z"/>
      <path id="path315" fill="#C68526" d="m83.044 13.789c0.086 0.098 0.193 0.237 0.31 0.396 0.305 0.117 0.61 0.233 0.915 0.35-0.25-0.308-0.506-0.579-0.771-0.824-0.329-0.126-0.657-0.251-0.986-0.377 0.193 0.139 0.38 0.283 0.532 0.455z"/>
      <linearGradient id="XMLID_88_" y2="431.19" gradientUnits="userSpaceOnUse" y1="431.19" gradientTransform="matrix(.9341 .3571 -.3571 .9341 124.59 -431.96)" x2="150.6" x1="-24.413">
        <stop id="stop318" stop-color="#FFFA5F" offset="0"/>
        <stop id="stop320" stop-color="#9F3300" offset="1"/>
      </linearGradient>
      <path id="path322" fill="url(#XMLID_88_)" d="m83.044 13.789c0.086 0.098 0.193 0.237 0.31 0.396 0.305 0.117 0.61 0.233 0.915 0.35-0.25-0.308-0.506-0.579-0.771-0.824-0.329-0.126-0.657-0.251-0.986-0.377 0.193 0.139 0.38 0.283 0.532 0.455z"/>
      <linearGradient id="XMLID_89_" y2="431.19" gradientUnits="userSpaceOnUse" y1="431.19" gradientTransform="matrix(.9341 .3571 -.3571 .9341 124.59 -431.96)" x2="200.87" x1="29.728">
        <stop id="stop325" stop-color="#fff" offset="0"/>
        <stop id="stop327" offset="1"/>
      </linearGradient>
      <path id="path329" fill="url(#XMLID_89_)" d="m83.044 13.789c0.086 0.098 0.193 0.237 0.31 0.396 0.305 0.117 0.61 0.233 0.915 0.35-0.25-0.308-0.506-0.579-0.771-0.824-0.329-0.126-0.657-0.251-0.986-0.377 0.193 0.139 0.38 0.283 0.532 0.455z"/>
      <path id="path331" fill="#FFB600" d="m61.332 6.195c-0.361-0.137-0.722-0.275-1.084-0.414-0.732 0.227-1.542 0.538-2.341 0.919 0.132 0.051 0.265 0.102 0.397 0.152 0.953-0.358 1.977-0.554 3.028-0.657z"/>
      <linearGradient id="XMLID_90_" y2="432.69" gradientUnits="userSpaceOnUse" y1="432.69" gradientTransform="matrix(.9341 .3571 -.3571 .9341 124.59 -431.96)" x2="200.84" x1="29.76">
        <stop id="stop334" stop-color="#fff" offset="0"/>
        <stop id="stop336" offset="1"/>
      </linearGradient>
      <path id="path338" fill="url(#XMLID_90_)" d="m61.332 6.195c-0.361-0.137-0.722-0.275-1.084-0.414-0.732 0.227-1.542 0.538-2.341 0.919 0.132 0.051 0.265 0.102 0.397 0.152 0.953-0.358 1.977-0.554 3.028-0.657z"/>
      <path id="path340" fill="#FFB600" d="m85.044 15.638c-0.111-0.182-0.222-0.342-0.331-0.502-0.321-0.122-0.643-0.246-0.962-0.368 0.402 0.619 0.87 1.426 1.302 2.312 0.271 0.103 0.543 0.207 0.814 0.311-0.236-0.646-0.516-1.252-0.823-1.753z"/>
      <linearGradient id="XMLID_91_" y2="432.69" gradientUnits="userSpaceOnUse" y1="432.69" gradientTransform="matrix(.9341 .3571 -.3571 .9341 124.59 -431.96)" x2="200.84" x1="29.758">
        <stop id="stop343" stop-color="#fff" offset="0"/>
        <stop id="stop345" offset="1"/>
      </linearGradient>
      <path id="path347" fill="url(#XMLID_91_)" d="m85.044 15.638c-0.111-0.182-0.222-0.342-0.331-0.502-0.321-0.122-0.643-0.246-0.962-0.368 0.402 0.619 0.87 1.426 1.302 2.312 0.271 0.103 0.543 0.207 0.814 0.311-0.236-0.646-0.516-1.252-0.823-1.753z"/>
      <path id="path349" fill="#fff" d="m86.475 19.83c-0.133-0.054-0.266-0.108-0.399-0.162 0.259 0.916 0.354 1.775 0.201 2.47 0.031 0.024 0.057 0.052 0.087 0.078 0.197-0.698 0.218-1.526 0.111-2.386z"/>
      <linearGradient id="XMLID_92_" y2="436.73" gradientUnits="userSpaceOnUse" y1="436.73" gradientTransform="matrix(.9341 .3571 -.3571 .9341 124.59 -431.96)" x2="200.79" x1="29.823">
        <stop id="stop352" stop-color="#fff" offset="0"/>
        <stop id="stop354" offset="1"/>
      </linearGradient>
      <path id="path356" fill="url(#XMLID_92_)" d="m86.475 19.83c-0.133-0.054-0.266-0.108-0.399-0.162 0.259 0.916 0.354 1.775 0.201 2.47 0.031 0.024 0.057 0.052 0.087 0.078 0.197-0.698 0.218-1.526 0.111-2.386z"/>
      <path id="path358" fill="#fff" d="m54.436 10.346c0.05-0.132 0.106-0.264 0.188-0.403 0.412-0.71 0.895-1.285 1.428-1.758-0.137-0.052-0.274-0.104-0.41-0.156-1.031 0.745-1.803 1.588-2.021 2.459 0.154-0.037 0.283-0.101 0.452-0.122 0.12-0.016 0.241-0.015 0.363-0.02z"/>
      <linearGradient id="XMLID_93_" y2="437.1" gradientUnits="userSpaceOnUse" y1="437.1" gradientTransform="matrix(.9341 .3571 -.3571 .9341 124.59 -431.96)" x2="200.82" x1="29.77">
        <stop id="stop361" stop-color="#fff" offset="0"/>
        <stop id="stop363" offset="1"/>
      </linearGradient>
      <path id="path365" fill="url(#XMLID_93_)" d="m54.436 10.346c0.05-0.132 0.106-0.264 0.188-0.403 0.412-0.71 0.895-1.285 1.428-1.758-0.137-0.052-0.274-0.104-0.41-0.156-1.031 0.745-1.803 1.588-2.021 2.459 0.154-0.037 0.283-0.101 0.452-0.122 0.12-0.016 0.241-0.015 0.363-0.02z"/>
      <path id="path367" fill="#C68526" d="m56.896 7.552c-0.115-0.042-0.232-0.082-0.35-0.121-0.12 0.071-0.242 0.143-0.36 0.218 0.126 0.04 0.251 0.085 0.376 0.128 0.109-0.08 0.221-0.154 0.334-0.225z"/>
      <linearGradient id="XMLID_94_" y2="434.86" gradientUnits="userSpaceOnUse" y1="434.86" gradientTransform="matrix(.9341 .3571 -.3571 .9341 124.59 -431.96)" x2="228.72" x1="-16.624">
        <stop id="stop370" stop-color="#FF8B3F" offset="0"/>
        <stop id="stop372" offset="1"/>
      </linearGradient>
      <path id="path374" fill="url(#XMLID_94_)" d="m56.896 7.552c-0.115-0.042-0.232-0.082-0.35-0.121-0.12 0.071-0.242 0.143-0.36 0.218 0.126 0.04 0.251 0.085 0.376 0.128 0.109-0.08 0.221-0.154 0.334-0.225z"/>
      <linearGradient id="XMLID_95_" y2="434.86" gradientUnits="userSpaceOnUse" y1="434.86" gradientTransform="matrix(.9341 .3571 -.3571 .9341 124.59 -431.96)" x2="201.04" x1="29.64">
        <stop id="stop377" stop-color="#fff" offset="0"/>
        <stop id="stop379" offset="1"/>
      </linearGradient>
      <path id="path381" fill="url(#XMLID_95_)" d="m56.896 7.552c-0.115-0.042-0.232-0.082-0.35-0.121-0.12 0.071-0.242 0.143-0.36 0.218 0.126 0.04 0.251 0.085 0.376 0.128 0.109-0.08 0.221-0.154 0.334-0.225z"/>
      <path id="path383" fill="#C68526" d="m86.227 18.539c-0.208-0.081-0.418-0.157-0.628-0.231 0.084 0.204 0.166 0.41 0.239 0.616 0.174 0.065 0.35 0.131 0.523 0.2-0.038-0.196-0.085-0.392-0.134-0.585z"/>
      <linearGradient id="XMLID_96_" y2="434.73" gradientUnits="userSpaceOnUse" y1="434.73" gradientTransform="matrix(.9341 .3571 -.3571 .9341 124.59 -431.96)" x2="228.62" x1="-16.607">
        <stop id="stop386" stop-color="#FF8B3F" offset="0"/>
        <stop id="stop388" offset="1"/>
      </linearGradient>
      <path id="path390" fill="url(#XMLID_96_)" d="m86.227 18.539c-0.208-0.081-0.418-0.157-0.628-0.231 0.084 0.204 0.166 0.41 0.239 0.616 0.174 0.065 0.35 0.131 0.523 0.2-0.038-0.196-0.085-0.392-0.134-0.585z"/>
      <linearGradient id="XMLID_97_" y2="434.73" gradientUnits="userSpaceOnUse" y1="434.73" gradientTransform="matrix(.9341 .3571 -.3571 .9341 124.59 -431.96)" x2="200.95" x1="29.633">
        <stop id="stop393" stop-color="#fff" offset="0"/>
        <stop id="stop395" offset="1"/>
      </linearGradient>
      <path id="path397" fill="url(#XMLID_97_)" d="m86.227 18.539c-0.208-0.081-0.418-0.157-0.628-0.231 0.084 0.204 0.166 0.41 0.239 0.616 0.174 0.065 0.35 0.131 0.523 0.2-0.038-0.196-0.085-0.392-0.134-0.585z"/>
      <path id="path399" fill="#fff" d="m86.361 19.123c-0.174-0.069-0.35-0.135-0.523-0.2 0.087 0.25 0.169 0.499 0.237 0.745 0.134 0.054 0.267 0.108 0.399 0.162-0.029-0.234-0.066-0.47-0.113-0.707z"/>
      <linearGradient id="XMLID_98_" y2="435.29" gradientUnits="userSpaceOnUse" y1="435.29" gradientTransform="matrix(.9341 .3571 -.3571 .9341 124.59 -431.96)" x2="228.53" x1="-16.485">
        <stop id="stop402" stop-color="#FF8B3F" offset="0"/>
        <stop id="stop404" offset="1"/>
      </linearGradient>
      <path id="path406" fill="url(#XMLID_98_)" d="m86.361 19.123c-0.174-0.069-0.35-0.135-0.523-0.2 0.087 0.25 0.169 0.499 0.237 0.745 0.134 0.054 0.267 0.108 0.399 0.162-0.029-0.234-0.066-0.47-0.113-0.707z"/>
      <linearGradient id="XMLID_99_" y2="435.29" gradientUnits="userSpaceOnUse" y1="435.29" gradientTransform="matrix(.9341 .3571 -.3571 .9341 124.59 -431.96)" x2="200.88" x1="29.714">
        <stop id="stop409" stop-color="#fff" offset="0"/>
        <stop id="stop411" offset="1"/>
      </linearGradient>
      <path id="path413" fill="url(#XMLID_99_)" d="m86.361 19.123c-0.174-0.069-0.35-0.135-0.523-0.2 0.087 0.25 0.169 0.499 0.237 0.745 0.134 0.054 0.267 0.108 0.399 0.162-0.029-0.234-0.066-0.47-0.113-0.707z"/>
      <path id="path415" fill="#fff" d="m56.563 7.777c-0.125-0.042-0.25-0.088-0.376-0.128-0.19 0.122-0.368 0.25-0.546 0.379 0.136 0.052 0.273 0.104 0.41 0.156 0.165-0.147 0.336-0.281 0.512-0.407z"/>
      <linearGradient id="XMLID_100_" y2="435.3" gradientUnits="userSpaceOnUse" y1="435.3" gradientTransform="matrix(.9341 .3571 -.3571 .9341 124.59 -431.96)" x2="228.6" x1="-16.52">
        <stop id="stop418" stop-color="#FF8B3F" offset="0"/>
        <stop id="stop420" offset="1"/>
      </linearGradient>
      <path id="path422" fill="url(#XMLID_100_)" d="m56.563 7.777c-0.125-0.042-0.25-0.088-0.376-0.128-0.19 0.122-0.368 0.25-0.546 0.379 0.136 0.052 0.273 0.104 0.41 0.156 0.165-0.147 0.336-0.281 0.512-0.407z"/>
      <linearGradient id="XMLID_101_" y2="435.31" gradientUnits="userSpaceOnUse" y1="435.31" gradientTransform="matrix(.9341 .3571 -.3571 .9341 124.59 -431.96)" x2="200.94" x1="29.7">
        <stop id="stop425" stop-color="#fff" offset="0"/>
        <stop id="stop427" offset="1"/>
      </linearGradient>
      <path id="path429" fill="url(#XMLID_101_)" d="m56.563 7.777c-0.125-0.042-0.25-0.088-0.376-0.128-0.19 0.122-0.368 0.25-0.546 0.379 0.136 0.052 0.273 0.104 0.41 0.156 0.165-0.147 0.336-0.281 0.512-0.407z"/>
      <path id="path431" fill="#F4F2F2" d="m84.791 23.615c-2.958 0.638-7.215-2.032-9.799-3.116-5.174-2.167-10.481-3.918-15.715-5.921-1.82-0.699-5.809-1.774-4.842-4.232-0.121 0.005-0.242 0.004-0.364 0.019-0.169 0.021-0.298 0.085-0.452 0.122-0.186 0.74 0.012 1.494 0.841 2.22 4.268 3.737 11.907 4.839 17.207 6.993 3.567 1.448 7.144 3.281 10.879 4.218 2.296 0.575 3.418-0.29 3.817-1.701-0.03-0.026-0.056-0.054-0.087-0.078-0.16 0.734-0.599 1.285-1.485 1.476z"/>
      <linearGradient id="XMLID_102_" y2="439.58" gradientUnits="userSpaceOnUse" y1="439.58" gradientTransform="matrix(.9341 .3571 -.3571 .9341 124.59 -431.96)" x2="200.85" x1="29.752">
        <stop id="stop434" stop-color="#fff" offset="0"/>
        <stop id="stop436" offset="1"/>
      </linearGradient>
      <path id="path438" fill="url(#XMLID_102_)" d="m84.791 23.615c-2.958 0.638-7.215-2.032-9.799-3.116-5.174-2.167-10.481-3.918-15.715-5.921-1.82-0.699-5.809-1.774-4.842-4.232-0.121 0.005-0.242 0.004-0.364 0.019-0.169 0.021-0.298 0.085-0.452 0.122-0.186 0.74 0.012 1.494 0.841 2.22 4.268 3.737 11.907 4.839 17.207 6.993 3.567 1.448 7.144 3.281 10.879 4.218 2.296 0.575 3.418-0.29 3.817-1.701-0.03-0.026-0.056-0.054-0.087-0.078-0.16 0.734-0.599 1.285-1.485 1.476z"/>
      <path id="path440" fill="#C6C6C6" d="m61.332 6.195c-1.051 0.104-2.075 0.299-3.027 0.657-0.492 0.185-0.965 0.414-1.408 0.7-0.113 0.071-0.226 0.145-0.334 0.225-0.176 0.126-0.347 0.26-0.512 0.407-0.533 0.473-1.016 1.048-1.428 1.758-0.081 0.14-0.138 0.271-0.188 0.403-0.967 2.458 3.021 3.533 4.842 4.232 5.233 2.003 10.541 3.755 15.715 5.921 2.584 1.084 6.841 3.754 9.799 3.116 0.886-0.191 1.325-0.742 1.485-1.478 0.153-0.695 0.058-1.554-0.201-2.47-0.068-0.246-0.15-0.495-0.237-0.745-0.073-0.206-0.155-0.412-0.239-0.616-0.167-0.417-0.351-0.829-0.546-1.228-0.432-0.886-0.899-1.692-1.302-2.312-0.144-0.219-0.276-0.418-0.397-0.583-0.116-0.16-0.224-0.299-0.31-0.396-0.152-0.171-0.339-0.315-0.533-0.455-0.717-0.519-1.645-0.873-2.32-1.385-0.032-0.025-0.051-0.05-0.082-0.075-1.654-1.315-0.833-2.419-0.569-4.263 0.584-4.078-3.279-7.329-7.249-7.091-3.913 0.234-4.021 5.546-7.123 5.553h-0.23c-0.458 0.001-0.92 0.003-1.387 0.01-0.426 0.006-0.853 0.019-1.278 0.042-0.316 0.02-0.628 0.043-0.941 0.073zm6.659-1.894c0.973-1.874 2.621-3.389 4.852-3.285 4.058 0.189 7.015 3.44 6.023 7.425-1.056 4.246 4.372 5.338 6.01 9.02 0.453 1.018 1.608 4.915 0.012 5.602-1.425 0.609-3.826-0.638-5.104-1.133-3.052-1.181-6.063-2.477-9.097-3.708-1.97-0.8-3.985-1.487-5.984-2.214-2.45-0.889-8.798-1.949-10.014-4.575-1.555-3.328 7.111-4.947 8.719-4.991 2.516 0.287 3.422 0.095 4.583-2.141z"/>
      <linearGradient id="XMLID_103_" y2="431.35" gradientUnits="userSpaceOnUse" y1="431.35" gradientTransform="matrix(.9341 .3571 -.3571 .9341 124.59 -431.96)" x2="200.85" x1="29.752">
        <stop id="stop443" stop-color="#fff" offset="0"/>
        <stop id="stop445" offset="1"/>
      </linearGradient>
      <path id="path447" fill="url(#XMLID_103_)" d="m61.332 6.195c-1.051 0.104-2.075 0.299-3.027 0.657-0.492 0.185-0.965 0.414-1.408 0.7-0.113 0.071-0.226 0.145-0.334 0.225-0.176 0.126-0.347 0.26-0.512 0.407-0.533 0.473-1.016 1.048-1.428 1.758-0.081 0.14-0.138 0.271-0.188 0.403-0.967 2.458 3.021 3.533 4.842 4.232 5.233 2.003 10.541 3.755 15.715 5.921 2.584 1.084 6.841 3.754 9.799 3.116 0.886-0.191 1.325-0.742 1.485-1.478 0.153-0.695 0.058-1.554-0.201-2.47-0.068-0.246-0.15-0.495-0.237-0.745-0.073-0.206-0.155-0.412-0.239-0.616-0.167-0.417-0.351-0.829-0.546-1.228-0.432-0.886-0.899-1.692-1.302-2.312-0.144-0.219-0.276-0.418-0.397-0.583-0.116-0.16-0.224-0.299-0.31-0.396-0.152-0.171-0.339-0.315-0.533-0.455-0.717-0.519-1.645-0.873-2.32-1.385-0.032-0.025-0.051-0.05-0.082-0.075-1.654-1.315-0.833-2.419-0.569-4.263 0.584-4.078-3.279-7.329-7.249-7.091-3.913 0.234-4.021 5.546-7.123 5.553h-0.23c-0.458 0.001-0.92 0.003-1.387 0.01-0.426 0.006-0.853 0.019-1.278 0.042-0.316 0.02-0.628 0.043-0.941 0.073zm6.659-1.894c0.973-1.874 2.621-3.389 4.852-3.285 4.058 0.189 7.015 3.44 6.023 7.425-1.056 4.246 4.372 5.338 6.01 9.02 0.453 1.018 1.608 4.915 0.012 5.602-1.425 0.609-3.826-0.638-5.104-1.133-3.052-1.181-6.063-2.477-9.097-3.708-1.97-0.8-3.985-1.487-5.984-2.214-2.45-0.889-8.798-1.949-10.014-4.575-1.555-3.328 7.111-4.947 8.719-4.991 2.516 0.287 3.422 0.095 4.583-2.141z"/>
      <linearGradient id="XMLID_104_" y2="426.5" gradientUnits="userSpaceOnUse" y1="426.5" gradientTransform="matrix(.9341 .3571 -.3571 .9341 124.59 -431.96)" x2="125.03" x1="94.552">
        <stop id="stop450" stop-color="#fff" offset="0"/>
        <stop id="stop452" offset="1"/>
      </linearGradient>
      <path id="path454" fill="url(#XMLID_104_)" d="m73.034 7.315c2.862 1.095 4.442-3.031 1.577-4.125-2.862-1.096-4.44 3.031-1.577 4.125zm-0.984-2.741c0.797-2.086 4.345-0.729 3.548 1.356-0.797 2.088-4.347 0.73-3.548-1.356z"/>
      <path id="path456" fill="#C6C6C6" d="m76.534 6.288c0.445-1.166 0.045-2.171-0.704-2.847-0.782-0.503-1.891-0.834-2.785-0.835-0.82 0.143-1.559 0.638-1.931 1.61-1.26 3.293 4.16 5.364 5.42 2.072zm-1.923-3.098c2.865 1.095 1.285 5.22-1.577 4.125-2.863-1.094-1.285-5.221 1.577-4.125z"/>
      <linearGradient id="XMLID_105_" y2="426.57" gradientUnits="userSpaceOnUse" y1="426.57" gradientTransform="matrix(.9341 .3571 -.3571 .9341 124.59 -431.96)" x2="125.02" x1="94.555">
        <stop id="stop459" stop-color="#fff" offset="0"/>
        <stop id="stop461" offset="1"/>
      </linearGradient>
      <path id="path463" fill="url(#XMLID_105_)" d="m76.534 6.288c0.445-1.166 0.045-2.171-0.704-2.847-0.782-0.503-1.891-0.834-2.785-0.835-0.82 0.143-1.559 0.638-1.931 1.61-1.26 3.293 4.16 5.364 5.42 2.072zm-1.923-3.098c2.865 1.095 1.285 5.22-1.577 4.125-2.863-1.094-1.285-5.221 1.577-4.125z"/>
      <path id="path465" fill="#EAEAEA" d="m75.83 3.441c0.7 0.45 1.136 1.031 0.905 1.635 0.911-2.382-4.274-4.017-5.112-1.822 0.178-0.461 0.737-0.649 1.422-0.649 0.894 0.002 2.003 0.333 2.785 0.836z"/>
      <path id="path467" fill="#EAEAEA" d="m56.609 12.484c-0.135 0.355 27.114 10.774 27.251 10.419 0.135-0.354-27.115-10.773-27.251-10.419z"/>
      <path id="path469" fill="#AFAFAF" d="m81.102 16.476c-3.165-3.24-7.145-5.411-11.474-6.669-1.92-0.557-11.784-2.653-13.05 0.656-0.129 0.339 27.813 11.053 27.953 10.687 0.363-0.953-2.909-4.14-3.429-4.674z"/>
      <path id="path471" fill="#EAEAEA" d="m59.973 8.365c0.779-2.04 12.852 2.034 13.872 2.474 0.912 0.396 9.697 4.831 9.009 6.629 0.944-2.465-8.892-7.233-10.177-7.725-1.18-0.451-11.812-3.715-12.704-1.378z"/>
      <path id="path473" fill="#fff" d="m27.737 6.061c-2.736 0.532-5.477 1.063-8.215 1.594-3.149 0.613-6.31 1.159-9.491 1.606-1.014 0.145-7.542 0.049-6.982 2.211 2.907 11.234 5.131 22.608 7.337 33.99 0.616 0.269 1.231 0.515 1.844 0.744-1.124-5.784-2.271-11.562-3.502-17.32-0.38-1.189-0.761-2.378-1.143-3.568-0.93-2.902-1.86-5.802-2.79-8.704-0.549-1.719-0.889-1.805 0.563-2.29-0.099-0.388-0.184-0.78-0.284-1.168-0.509-1.989 2.911-1.821 3.975-1.956 3.613-0.456 7.22-0.974 10.795-1.667 3.115-0.606 6.229-1.208 9.344-1.814 0.336-0.064 0.665-0.124 0.977-0.148 0.1-0.048 0.2-0.083 0.3-0.096-0.013 0.031-0.031 0.06-0.042 0.089 0.122-0.001 0.238 0.007 0.351 0.022 0.109-0.054 0.215-0.083 0.308-0.051-0.012 0.035-0.029 0.067-0.041 0.102 0.487 0.143 0.856 0.509 1.005 1.309 1.015 5.413 2.046 10.815 3.093 16.219 0.048 0.248 0.102 0.494 0.151 0.741 0.208-0.052 0.412-0.118 0.621-0.165 0.059-1.043 0.186-2.103 0.457-3.034-0.644-3.322-1.06-6.806-1.667-10.213-0.049-0.256-0.098-0.513-0.147-0.768-0.359-1.917-0.786-3.808-1.366-5.621-0.538-1.681-4.375-0.253-5.451-0.044zm2.154 1.522c-0.026 0.047 0.652-1.211 0.838-1.1 0.598 0.349-0.509 1.037-0.838 1.1z"/>
      <linearGradient id="XMLID_106_" y2="-880.51" gradientUnits="userSpaceOnUse" y1="-880.51" gradientTransform="matrix(-.305 -.9523 .9523 -.305 1348.3 1280.8)" x2="1847.9" x1="1504.9">
        <stop id="stop476" stop-color="#fff" offset="0"/>
        <stop id="stop478" offset="1"/>
      </linearGradient>
      <path id="path480" fill="url(#XMLID_106_)" d="m6.196 26.003c-1.065-4.841-2.201-9.671-3.439-14.471-0.533-2.067 2.535-1.949 3.701-2.095 3.804-0.471 7.603-1.026 11.367-1.755 3.411-0.66 6.819-1.321 10.228-1.979 1.208-0.235 4.304-1.451 5.228-0.075 0.517 0.771 0.522 2.123 0.683 2.987 0.195 1.037 0.396 2.074 0.591 3.111 0.049 0.256 0.1 0.51 0.147 0.768 0.285 1.503 0.569 3.007 0.857 4.509 0.326 1.705 0.674 3.406 1.018 5.108 0.068-0.171 0.143-0.335 0.223-0.489-0.651-3.261-1.289-6.522-1.912-9.79-0.306-1.614-0.436-7.67-3.232-7.131-3.123 0.606-6.245 1.212-9.368 1.819-6.03 1.168-12.067 2.23-18.176 2.897-2.827 0.307-1.156 4.096-0.768 5.665 1.119 4.561 2.179 9.134 3.157 13.728 1.059 4.979 1.991 9.986 2.96 14.982 0.088 0.449 0.167 0.904 0.247 1.361 0.118 0.055 0.236 0.108 0.355 0.162-1.235-6.447-2.455-12.9-3.867-19.312z"/>
      <path id="path482" fill="#fff" d="m36.576 22.11c-0.343-1.702-0.691-3.403-1.018-5.108-0.289-1.502-0.572-3.005-0.857-4.509 0.606 3.407 1.023 6.892 1.667 10.213 0.06-0.206 0.131-0.404 0.208-0.596z"/>
      <linearGradient id="XMLID_107_" y2="-864.94" gradientUnits="userSpaceOnUse" y1="-864.94" gradientTransform="matrix(-.305 -.9523 .9523 -.305 1348.3 1280.8)" x2="1847.9" x1="1504.9">
        <stop id="stop485" stop-color="#fff" offset="0"/>
        <stop id="stop487" offset="1"/>
      </linearGradient>
      <path id="path489" fill="url(#XMLID_107_)" d="m36.576 22.11c-0.343-1.702-0.691-3.403-1.018-5.108-0.289-1.502-0.572-3.005-0.857-4.509 0.606 3.407 1.023 6.892 1.667 10.213 0.06-0.206 0.131-0.404 0.208-0.596z"/>
      <path id="path491" fill="#fff" d="m3.049 11.472c-0.56-2.162 5.968-2.065 6.983-2.211 3.181-0.447 6.341-0.993 9.491-1.606 2.738-0.531 5.479-1.062 8.215-1.594 1.075-0.208 4.913-1.636 5.451 0.044 0.58 1.813 1.007 3.703 1.366 5.621-0.196-1.037-0.396-2.074-0.591-3.111-0.16-0.864-0.166-2.216-0.683-2.987-0.923-1.376-4.02-0.16-5.228 0.075-3.409 0.658-6.817 1.319-10.228 1.979-3.763 0.728-7.562 1.284-11.367 1.755-1.167 0.147-4.234 0.028-3.702 2.096 1.238 4.799 2.374 9.63 3.439 14.471 1.412 6.412 2.631 12.865 3.867 19.312 0.108 0.049 0.214 0.1 0.322 0.147-2.204-11.383-4.428-22.757-7.335-33.991z"/>
      <linearGradient id="XMLID_108_" y2="-880.5" gradientUnits="userSpaceOnUse" y1="-880.5" gradientTransform="matrix(-.305 -.9523 .9523 -.305 1348.3 1280.8)" x2="1847.9" x1="1504.9">
        <stop id="stop494" stop-color="#fff" offset="0"/>
        <stop id="stop496" offset="1"/>
      </linearGradient>
      <path id="path498" fill="url(#XMLID_108_)" d="m3.049 11.472c-0.56-2.162 5.968-2.065 6.983-2.211 3.181-0.447 6.341-0.993 9.491-1.606 2.738-0.531 5.479-1.062 8.215-1.594 1.075-0.208 4.913-1.636 5.451 0.044 0.58 1.813 1.007 3.703 1.366 5.621-0.196-1.037-0.396-2.074-0.591-3.111-0.16-0.864-0.166-2.216-0.683-2.987-0.923-1.376-4.02-0.16-5.228 0.075-3.409 0.658-6.817 1.319-10.228 1.979-3.763 0.728-7.562 1.284-11.367 1.755-1.167 0.147-4.234 0.028-3.702 2.096 1.238 4.799 2.374 9.63 3.439 14.471 1.412 6.412 2.631 12.865 3.867 19.312 0.108 0.049 0.214 0.1 0.322 0.147-2.204-11.383-4.428-22.757-7.335-33.991z"/>
      <path id="path500" fill="#F4F4F4" d="m30.331 7.781c-0.066 0.146-0.144 0.288-0.21 0.434 0.232-0.311 0.453-0.53 0.652-0.628-0.113-0.015-0.229-0.023-0.351-0.022-0.04 0.092-0.088 0.182-0.131 0.273 0.014-0.019 0.026-0.039 0.04-0.057z"/>
      <path id="path502" fill="#F4F4F4" d="m8.087 13.447l-0.001-0.001c-0.318-0.292-0.9-0.63-1.034-1.047 0.001 0.001 1.007 1.018 1.034 1.047l0.001 0.001c0.069-0.023 0.138-0.045 0.208-0.067-0.583-0.578-1.095-1.037-1.233-1.011 0.129-0.024 0.289-0.002 0.462 0.04 0.033 0.008 0.067 0.02 0.101 0.03 0.433 0.125 0.95 0.391 1.452 0.69 2.38-0.762 4.76-1.524 7.14-2.287 1.763-0.565 1.405 0.04 1.953 1.747 0.779 2.434 1.56 4.869 2.339 7.302 0.543 0.353 1.083 0.708 1.619 1.073 0.44-0.711 0.877-1.421 1.311-2.136 1.081-2.019 2.23-4.023 3.454-5.981 0.776-1.655 2.035-4.681 3.271-5.276-0.312 0.024-0.641 0.084-0.977 0.148-3.115 0.606-6.229 1.208-9.344 1.814-3.575 0.693-7.182 1.211-10.795 1.667-1.064 0.135-4.484-0.033-3.975 1.956 0.1 0.388 0.185 0.78 0.284 1.168 0.125-0.041 0.24-0.081 0.394-0.13 0.779-0.249 1.557-0.499 2.336-0.747z"/>
      <path id="path504" fill="#F4F4F4" d="m22.583 20.444c-0.203 0.331-0.377 0.563-0.453 0.521 0.044 0.028 0.088 0.057 0.13 0.086 0.105-0.201 0.219-0.405 0.323-0.607z"/>
      <path id="path506" fill="#F4F4F4" d="m22.661 21.333c0.004 0.003 0.005 0.005 0.008 0.009 1.181 0.816 2.343 1.662 3.463 2.558 1.366 1.09 3.021 2.379 4.083 3.925 1.594-0.839 3.296-1.482 5.074-1.919-0.049-0.248-0.103-0.494-0.151-0.741-1.047-5.403-2.078-10.806-3.093-16.219-0.149-0.8-0.519-1.166-1.005-1.309-1.89 4.917-5.037 9.644-7.872 14.05-0.17-0.119-0.34-0.238-0.507-0.354z"/>
      <path id="path508" fill="#F4F4F4" d="m22.659 21.334l0.001-0.002c-0.023-0.015-0.046-0.031-0.07-0.048 0.024 0.017 0.047 0.033 0.069 0.05z"/>
      <path id="path510" fill="#F4F4F4" d="m8.728 28.886c1.23 5.758 2.378 11.536 3.502 17.32 0.794 0.298 1.569 0.565 2.303 0.803-1.936-6.042-3.872-12.082-5.805-18.123z"/>
      <path id="path512" fill="#C6C6C6" d="m9.077 13.129c-0.502-0.299-1.019-0.565-1.452-0.69 0.388 0.128 0.802 0.415 1.211 0.767 0.081-0.025 0.162-0.051 0.241-0.077z"/>
      <path id="path514" fill="#C6C6C6" d="m22.257 21.057c0.001-0.001 0.001-0.004 0.003-0.006-0.042-0.029-0.086-0.058-0.13-0.086 0-0.001-0.002 0.002-0.004 0.001 0.06 0.042 0.07 0.118 0.078 0.196 0.019-0.034 0.035-0.069 0.053-0.105z"/>
      <path id="path516" fill="#C6C6C6" d="m22.451 21.621c0.085-0.11 0.158-0.208 0.208-0.287-0.022-0.017-0.045-0.033-0.069-0.05-0.111-0.076-0.222-0.152-0.333-0.228 0.2 0.137 0.24 0.336 0.194 0.565z"/>
      <path id="path518" fill="#C6C6C6" d="m21.43 22.767c0 0.003 0.001 0.006 0.001 0.008l0.012-0.027c-0.005 0.007-0.008 0.012-0.013 0.019z"/>
      <path id="path520" fill="#C6C6C6" d="m21.705 23.625c0.327 1.023 0.654 2.047 0.982 3.07 0.729 0.907 1.388 1.852 1.924 2.851 0.317 0.591 0.497 1.222 0.584 1.872 1.504-1.412 3.187-2.627 5.021-3.592-1.063-1.546-2.718-2.835-4.083-3.925-1.121-0.896-2.282-1.742-3.463-2.558 0.952 0.67-0.112 1.585-0.965 2.282z"/>
      <path id="path522" fill="#C6C6C6" d="m7.063 12.369c0.146-0.023 0.302-0.002 0.462 0.04-0.173-0.043-0.334-0.065-0.462-0.04z"/>
      <path id="path524" fill="#C6C6C6" d="m22.125 20.966c0.002-0.001 0.002-0.002 0.002-0.002-0.535-0.365-1.076-0.72-1.619-1.073 0.247 0.771 0.494 1.54 0.741 2.311 0.369-0.534 0.744-1.019 0.876-1.236z"/>
      <path id="path526" fill="#FDFDFD" d="m8.295 13.38c-0.07 0.022-0.14 0.044-0.208 0.067 0.657 0.604 1.341 1.21 2.041 1.822-0.422-0.439-1.17-1.235-1.833-1.889z"/>
      <path id="path528" fill="#FDFDFD" d="m16.747 47.696c0.421 0.126 0.851 0.228 1.273 0.349-0.002-0.102-0.016-0.199-0.016-0.3 0-5.9 2.396-11.322 6.23-15.372-0.001-0.01 0.001-0.021 0-0.031-0.001-0.02 0-0.041-0.001-0.063-0.023-0.43-0.088-0.849-0.187-1.258-0.029-0.114-0.049-0.231-0.085-0.344-0.521-1.627-1.525-3.163-2.718-4.605 0.878 1.155 1.661 2.358 2.303 3.621-0.644-1.263-1.428-2.468-2.308-3.626-1.747-2.113-3.909-4.026-5.644-5.705-1.694-1.635-3.429-3.225-5.175-4.801-0.051-0.045-0.144-0.14-0.262-0.262-0.71-0.621-1.405-1.237-2.071-1.852-0.779 0.249-1.557 0.498-2.336 0.748-0.153 0.05-0.269 0.089-0.394 0.13-1.451 0.484-1.111 0.571-0.563 2.29 0.93 2.902 1.86 5.802 2.79 8.704 0.381 1.189 0.763 2.378 1.143 3.568 1.934 6.041 3.869 12.081 5.805 18.123 0.806 0.258 1.562 0.488 2.216 0.686z"/>
      <path id="path530" fill="#FDFDFD" d="m24.234 32.279c-0.023-0.431-0.086-0.851-0.187-1.258 0.099 0.409 0.163 0.827 0.187 1.258z"/>
      <path id="path532" fill="#FDFDFD" d="m24.235 32.372l0.001-0.002c0-0.009 0-0.018-0.001-0.027 0.002 0.01-0.001 0.019 0 0.029z"/>
      <path id="path534" fill="#FDFDFD" d="m11.065 15.489c1.534 1.462 3.108 2.878 4.661 4.317 2.295 2.126 4.92 4.348 6.961 6.888-0.328-1.023-0.656-2.046-0.982-3.07-0.48 0.391-0.895 0.713-0.839 0.882-0.104-0.325 0.071-0.771 0.353-1.233 0.068-0.167 0.141-0.333 0.214-0.498 0-0.002-0.001-0.005-0.001-0.008-0.497 0.701-1.041 1.337-1.036 1.354-0.127-0.396 0.358-1.204 0.855-1.919-0.247-0.771-0.494-1.541-0.741-2.311-0.779-2.433-1.56-4.868-2.339-7.302-0.548-1.708-0.19-2.312-1.953-1.747-2.38 0.763-4.76 1.525-7.14 2.287-0.079 0.026-0.161 0.052-0.24 0.077 0.883 0.761 1.741 1.823 2.227 2.283z"/>
      <path id="path536" fill="#9A9A9A" d="m24.234 32.279c0.001 0.021 0 0.042 0.001 0.063 0-0.021 0-0.042-0.001-0.063z"/>
      <path id="path538" fill="#9A9A9A" d="m10.158 15.299c0.118 0.122 0.211 0.217 0.262 0.262 1.746 1.576 3.481 3.166 5.175 4.801 1.735 1.679 3.897 3.592 5.644 5.705-0.163-0.215-0.333-0.428-0.503-0.641-3.009-3.748-6.995-6.996-10.578-10.127z"/>
      <path id="path540" fill="#9A9A9A" d="m24.047 31.021c0.1 0.407 0.163 0.827 0.187 1.258 0.001 0.021 0.001 0.043 0.001 0.064 0.001 0.009 0.001 0.018 0.001 0.027 0.31-0.328 0.629-0.645 0.958-0.953-0.087-0.65-0.267-1.281-0.584-1.872-0.536-0.999-1.194-1.944-1.924-2.851-2.042-2.541-4.667-4.762-6.961-6.888-1.553-1.439-3.127-2.854-4.661-4.317-0.486-0.46-1.344-1.522-2.228-2.284-0.41-0.353-0.824-0.639-1.211-0.767-0.034-0.01-0.068-0.021-0.101-0.03-0.16-0.042-0.315-0.063-0.462-0.04 0.138-0.026 0.65 0.434 1.233 1.011 0.663 0.654 1.41 1.45 1.833 1.889 3.592 3.135 7.594 6.398 10.608 10.157 0.171 0.214 0.343 0.428 0.507 0.646 1.193 1.443 2.197 2.978 2.718 4.605 0.037 0.114 0.058 0.231 0.086 0.345-0.008-0.036-0.007-0.073-0.017-0.109 0.011 0.036 0.009 0.073 0.017 0.109z"/>
      <path id="path542" fill="#C4C4C4" d="m24.235 32.343c0-0.021 0-0.043-0.001-0.064-0.023-0.431-0.088-0.849-0.187-1.258-0.008-0.036-0.007-0.073-0.017-0.109 0.01 0.036 0.008 0.073 0.017 0.109 0.099 0.409 0.163 0.828 0.187 1.258 0.001 0.021 0.001 0.042 0.001 0.063 0.001 0.01-0.001 0.021 0 0.031-0.001-0.011 0.002-0.02 0-0.03z"/>
      <path id="path544" fill="#C4C4C4" d="m21.239 26.066c0.879 1.159 1.664 2.363 2.308 3.626-0.642-1.263-1.425-2.466-2.303-3.621-0.165-0.218-0.336-0.432-0.507-0.646 0.17 0.213 0.339 0.426 0.502 0.641z"/>
      <path id="path546" fill="#C4C4C4" d="m20.736 25.425c-3.015-3.758-7.016-7.021-10.608-10.157-0.7-0.612-1.384-1.218-2.041-1.822l-0.001-0.001 0.001 0.001c0.667 0.615 1.361 1.231 2.071 1.852 3.583 3.132 7.569 6.38 10.578 10.127z"/>
      <path id="path548" fill="#BCBCBC" d="m8.085 13.445c-0.027-0.03-1.033-1.046-1.034-1.047 0.135 0.417 0.716 0.755 1.034 1.047z"/>
      <path id="path550" fill="#FAFAFA" d="m30.121 8.214c-2.081 4.55-4.758 8.929-7.46 13.118 0.167 0.117 0.337 0.236 0.507 0.354 2.835-4.406 5.982-9.133 7.872-14.05 0.012-0.035 0.029-0.067 0.041-0.102-0.093-0.032-0.199-0.003-0.308 0.051-0.199 0.1-0.42 0.319-0.652 0.629z"/>
      <path id="path552" fill="#E4E4E4" d="m22.451 21.621c-0.133 0.641-1.003 1.528-1.378 1.99 0.044-0.114 0.099-0.225 0.146-0.337-0.281 0.462-0.457 0.908-0.353 1.233-0.055-0.169 0.359-0.491 0.839-0.882 0.854-0.696 1.917-1.611 0.964-2.283-0.003-0.003-0.004-0.006-0.008-0.009l-0.001 0.002c-0.052 0.079-0.124 0.176-0.209 0.286z"/>
      <path id="path554" fill="#E3E1E1" d="m22.13 20.965c0.075 0.041 0.25-0.191 0.453-0.521 0.28-0.54 0.568-1.077 0.856-1.616-0.434 0.715-0.871 1.425-1.311 2.136 0 0 0 0.001-0.002 0.002 0.001 0.002 0.004-0.002 0.004-0.001z"/>
      <path id="path556" fill="#B8B6B6" d="m22.204 21.162c-0.008-0.078-0.019-0.154-0.078-0.196-0.133 0.217-0.507 0.702-0.876 1.236-0.497 0.716-0.982 1.524-0.855 1.919-0.005-0.017 0.539-0.653 1.036-1.354 0.004-0.007 0.008-0.012 0.014-0.019 0.238-0.535 0.493-1.064 0.759-1.586z"/>
      <path id="path558" fill="#EDEBEB" d="m30.729 6.483c-0.187-0.111-0.864 1.147-0.838 1.1 0.329-0.063 1.436-0.751 0.838-1.1z"/>
      <path id="path560" fill="#E3E1E1" d="m26.893 12.847c1.076-1.725 2.196-3.417 3.398-5.01 0.042-0.091 0.091-0.181 0.131-0.273 0.012-0.03 0.03-0.059 0.042-0.089-0.1 0.014-0.2 0.048-0.3 0.096-1.237 0.595-2.496 3.621-3.271 5.276z"/>
      <path id="path562" fill="#E8E6E6" d="m22.26 21.051c-0.001 0.001-0.001 0.004-0.003 0.006 0.111 0.075 0.222 0.152 0.333 0.228 0.024 0.017 0.047 0.033 0.07 0.048 2.703-4.189 5.379-8.568 7.46-13.118 0.066-0.146 0.144-0.288 0.21-0.434-0.014 0.018-0.026 0.039-0.04 0.056-1.203 1.594-2.322 3.285-3.398 5.01-1.224 1.958-2.374 3.962-3.454 5.981-0.288 0.539-0.576 1.076-0.856 1.616-0.103 0.202-0.217 0.406-0.322 0.607z"/>
      <path id="path564" fill="#D4D2D2" d="m22.451 21.621c0.046-0.229 0.006-0.428-0.193-0.564-0.018 0.036-0.034 0.071-0.054 0.105-0.266 0.521-0.521 1.051-0.76 1.586l-0.012 0.027c-0.073 0.165-0.146 0.331-0.214 0.498-0.046 0.113-0.102 0.224-0.146 0.337 0.376-0.461 1.246-1.348 1.379-1.989z"/>
      <path id="path566" fill="#D6D6D6" d="m18.723 47.744c0 0.168 0.022 0.332 0.026 0.499 0.04 0.011 0.081 0.022 0.12 0.033-0.004-0.178-0.027-0.352-0.027-0.532 0-10.218 7.391-18.963 17.033-21.129 0.001-0.041 0.004-0.083 0.004-0.125-9.7 2.171-17.156 10.983-17.156 21.254z"/>
      <path id="path568" fill="#D6D6D6" d="m20.256 47.289c0 0.467 0.04 0.925 0.071 1.385 4.042 1.014 8.169 1.732 12.33 2.213 0.102-0.46 0.21-0.919 0.309-1.374 0.165-0.754 0.299-1.514 0.451-2.271-0.361 0.055-0.72 0.069-1.071-0.027-2.311-0.63-1.405-4.834-1.801-6.556-0.66-2.868-3.899-0.477-5.629-0.055-2.418 0.591 1.16-5.03 1.616-5.585 1.095-1.339 2.375-2.565 3.815-3.526 0.17-0.113 3.109-1.589 3.122-1.199 0.036 1.188-8.604 6.725-1.709 5.482 3.485-0.629 0.966 4.772 2.428 6.222 0.046 0.045 0.104 0.061 0.154 0.097 0.666-4.172 1.158-8.37 1.458-12.593 0.039-0.524 0.044-1.174 0.055-1.881-8.853 2.149-15.599 10.232-15.599 19.668z"/>
      <path id="path570" fill="#D6D6D6" d="m19.319 48.221c0 0.061 0.01 0.119 0.01 0.18 0.17 0.045 0.34 0.096 0.511 0.14-0.009-0.266-0.041-0.527-0.041-0.795 0-9.685 6.951-17.981 16.055-20.138v-0.018c-9.368 2.164-16.535 10.681-16.535 20.631z"/>
      <path id="path572" fill="#fff" d="m18.842 47.744c0 0.18 0.023 0.354 0.027 0.532 0.154 0.042 0.306 0.085 0.46 0.125 0-0.061-0.01-0.119-0.01-0.18 0-9.95 7.167-18.467 16.535-20.632 0.005-0.315 0.011-0.639 0.021-0.974-9.642 2.166-17.033 10.911-17.033 21.129z"/>
      <path id="path574" fill="#C6C6C6" d="m19.8 47.745c0 0.269 0.031 0.53 0.041 0.795 0.163 0.042 0.324 0.093 0.487 0.133-0.032-0.46-0.071-0.918-0.071-1.385 0-9.436 6.746-17.519 15.598-19.667v-0.015c-9.104 2.158-16.055 10.454-16.055 20.139z"/>
      <path id="path576" fill="#F4F2F2" d="m62.816 50.392c0.104-0.871 0.176-1.752 0.176-2.648 0-0.165-0.021-0.324-0.025-0.489 0 0.013-0.002 0.024-0.003 0.036-0.095 1.036-0.173 2.074-0.25 3.112 0.033-0.004 0.066-0.007 0.102-0.011z"/>
      <linearGradient id="XMLID_109_" y2="463.74" gradientUnits="userSpaceOnUse" y1="463.74" gradientTransform="matrix(73.999 463.33 463.33 -73.999 -1.9559e5 1.5466e5)" x2="-259.15" x1="-259.94">
        <stop id="stop579" stop-color="#fff" offset="0"/>
        <stop id="stop581" offset="1"/>
      </linearGradient>
      <path id="path583" fill="url(#XMLID_109_)" d="m62.816 50.392c0.104-0.871 0.176-1.752 0.176-2.648 0-0.165-0.021-0.324-0.025-0.489 0 0.013-0.002 0.024-0.003 0.036-0.095 1.036-0.173 2.074-0.25 3.112 0.033-0.004 0.066-0.007 0.102-0.011z"/>
      <path id="path585" fill="#D8D8D8" d="m62.816 50.392c-0.036 0.003-0.069 0.007-0.103 0.011-0.019 0.242-0.042 0.483-0.061 0.724 0.018-0.001 0.032-0.002 0.048-0.004 0.038-0.243 0.086-0.483 0.116-0.731z"/>
      <linearGradient id="XMLID_110_" y2="463.74" gradientUnits="userSpaceOnUse" y1="463.74" gradientTransform="matrix(73.999 463.33 463.33 -73.999 -1.9559e5 1.5466e5)" x2="-259.17" x1="-259.93">
        <stop id="stop588" stop-color="#fff" offset="0"/>
        <stop id="stop590" offset="1"/>
      </linearGradient>
      <path id="path592" fill="url(#XMLID_110_)" d="m62.816 50.392c-0.036 0.003-0.069 0.007-0.103 0.011-0.019 0.242-0.042 0.483-0.061 0.724 0.018-0.001 0.032-0.002 0.048-0.004 0.038-0.243 0.086-0.483 0.116-0.731z"/>
      <path id="path594" fill="#fff" d="m35.29 25.905c0.022 0.117 0.047 0.233 0.071 0.35 0.178-0.044 0.354-0.1 0.535-0.14 0.005-0.125 0.008-0.249 0.015-0.375-0.21 0.048-0.413 0.114-0.621 0.165z"/>
      <linearGradient id="XMLID_111_" y2="463.69" gradientUnits="userSpaceOnUse" y1="463.69" gradientTransform="matrix(73.999 463.33 463.33 -73.999 -1.9559e5 1.5466e5)" x2="-259.34" x1="-259.85">
        <stop id="stop597" stop-color="#fff" offset="0"/>
        <stop id="stop599" offset="1"/>
      </linearGradient>
      <path id="path601" fill="url(#XMLID_111_)" d="m35.29 25.905c0.022 0.117 0.047 0.233 0.071 0.35 0.178-0.044 0.354-0.1 0.535-0.14 0.005-0.125 0.008-0.249 0.015-0.375-0.21 0.048-0.413 0.114-0.621 0.165z"/>
      <path id="path603" fill="#F4F4F4" d="m30.404 28.125c1.558-0.816 3.221-1.443 4.957-1.87-0.024-0.117-0.049-0.233-0.071-0.35-1.778 0.437-3.48 1.08-5.074 1.919 0.067 0.099 0.126 0.201 0.188 0.301z"/>
      <linearGradient id="XMLID_112_" y2="463.68" gradientUnits="userSpaceOnUse" y1="463.68" gradientTransform="matrix(73.999 463.33 463.33 -73.999 -1.9559e5 1.5466e5)" x2="-259.27" x1="-259.88">
        <stop id="stop606" stop-color="#fff" offset="0"/>
        <stop id="stop608" offset="1"/>
      </linearGradient>
      <path id="path610" fill="url(#XMLID_112_)" d="m30.404 28.125c1.558-0.816 3.221-1.443 4.957-1.87-0.024-0.117-0.049-0.233-0.071-0.35-1.778 0.437-3.48 1.08-5.074 1.919 0.067 0.099 0.126 0.201 0.188 0.301z"/>
      <path id="path612" fill="#C6C6C6" d="m25.195 31.417c0.02 0.144 0.037 0.287 0.045 0.432 1.534-1.473 3.27-2.73 5.163-3.724-0.062-0.1-0.121-0.202-0.188-0.3-1.833 0.965-3.516 2.18-5.02 3.592z"/>
      <linearGradient id="XMLID_113_" y2="463.67" gradientUnits="userSpaceOnUse" y1="463.67" gradientTransform="matrix(73.999 463.33 463.33 -73.999 -1.9559e5 1.5466e5)" x2="-259.2" x1="-259.91">
        <stop id="stop615" stop-color="#fff" offset="0"/>
        <stop id="stop617" offset="1"/>
      </linearGradient>
      <path id="path619" fill="url(#XMLID_113_)" d="m25.195 31.417c0.02 0.144 0.037 0.287 0.045 0.432 1.534-1.473 3.27-2.73 5.163-3.724-0.062-0.1-0.121-0.202-0.188-0.3-1.833 0.965-3.516 2.18-5.02 3.592z"/>
      <path id="path621" fill="#FDFDFD" d="m24.237 32.37l-0.001 0.002c0.007 0.176-0.015 0.36-0.018 0.54 0.01-0.011 0.021-0.023 0.03-0.035 0.004-0.17-0.004-0.339-0.011-0.507z"/>
      <linearGradient id="XMLID_114_" y2="463.66" gradientUnits="userSpaceOnUse" y1="463.66" gradientTransform="matrix(73.999 463.33 463.33 -73.999 -1.9559e5 1.5466e5)" x2="-259.16" x1="-259.93">
        <stop id="stop624" stop-color="#fff" offset="0"/>
        <stop id="stop626" offset="1"/>
      </linearGradient>
      <path id="path628" fill="url(#XMLID_114_)" d="m24.237 32.37l-0.001 0.002c0.007 0.176-0.015 0.36-0.018 0.54 0.01-0.011 0.021-0.023 0.03-0.035 0.004-0.17-0.004-0.339-0.011-0.507z"/>
      <path id="path630" fill="#FDFDFD" d="m18.005 47.744c0 0.101 0.014 0.198 0.016 0.3 0.122 0.034 0.244 0.066 0.365 0.098-0.003-0.134-0.021-0.265-0.021-0.398 0-5.669 2.243-10.882 5.852-14.832 0.004-0.18 0.026-0.364 0.019-0.54-3.836 4.05-6.231 9.472-6.231 15.372z"/>
      <linearGradient id="XMLID_115_" y2="463.65" gradientUnits="userSpaceOnUse" y1="463.65" gradientTransform="matrix(73.999 463.33 463.33 -73.999 -1.9559e5 1.5466e5)" x2="-259.19" x1="-259.92">
        <stop id="stop633" stop-color="#fff" offset="0"/>
        <stop id="stop635" offset="1"/>
      </linearGradient>
      <path id="path637" fill="url(#XMLID_115_)" d="m18.005 47.744c0 0.101 0.014 0.198 0.016 0.3 0.122 0.034 0.244 0.066 0.365 0.098-0.003-0.134-0.021-0.265-0.021-0.398 0-5.669 2.243-10.882 5.852-14.832 0.004-0.18 0.026-0.364 0.019-0.54-3.836 4.05-6.231 9.472-6.231 15.372z"/>
      <path id="path639" fill="#9A9A9A" d="m24.237 32.37c0.007 0.167 0.015 0.336 0.011 0.507 0.324-0.351 0.65-0.698 0.993-1.029-0.008-0.145-0.026-0.288-0.045-0.432-0.33 0.31-0.65 0.626-0.959 0.954z"/>
      <path id="path646" fill="url(#XMLID_114_)" d="m24.237 32.37c0.007 0.167 0.015 0.336 0.011 0.507 0.324-0.351 0.65-0.698 0.993-1.029-0.008-0.145-0.026-0.288-0.045-0.432-0.33 0.31-0.65 0.626-0.959 0.954z"/>
      <path id="path648" fill="#C4C4C4" d="m24.235 32.372c0.007 0.176-0.015 0.36-0.019 0.54h0.001c0.004-0.18 0.025-0.364 0.018-0.54z"/>
      <path id="path650" fill="url(#XMLID_114_)" d="m24.235 32.372c0.007 0.176-0.015 0.36-0.019 0.54h0.001c0.004-0.18 0.025-0.364 0.018-0.54z"/>
      <path id="path652" fill="#D6D6D6" d="m35.361 26.255c-1.736 0.427-3.399 1.054-4.957 1.87-1.893 0.993-3.629 2.251-5.163 3.724-0.343 0.331-0.669 0.678-0.993 1.029-0.009 0.011-0.02 0.024-0.03 0.035h-0.001c-3.609 3.95-5.852 9.163-5.852 14.832 0 0.134 0.018 0.265 0.021 0.398 0.121 0.035 0.243 0.068 0.364 0.1-0.004-0.167-0.026-0.33-0.026-0.499 0-10.271 7.457-19.083 17.157-21.254 0.004-0.123 0.011-0.25 0.017-0.374-0.183 0.039-0.359 0.095-0.537 0.139z"/>
      <path id="path659" fill="url(#XMLID_113_)" d="m35.361 26.255c-1.736 0.427-3.399 1.054-4.957 1.87-1.893 0.993-3.629 2.251-5.163 3.724-0.343 0.331-0.669 0.678-0.993 1.029-0.009 0.011-0.02 0.024-0.03 0.035h-0.001c-3.609 3.95-5.852 9.163-5.852 14.832 0 0.134 0.018 0.265 0.021 0.398 0.121 0.035 0.243 0.068 0.364 0.1-0.004-0.167-0.026-0.33-0.026-0.499 0-10.271 7.457-19.083 17.157-21.254 0.004-0.123 0.011-0.25 0.017-0.374-0.183 0.039-0.359 0.095-0.537 0.139z"/>
      <path id="path661" fill="#ADADAD" d="m31.759 35.776c-6.895 1.243 1.745-4.294 1.709-5.482-0.012-0.39-2.952 1.086-3.122 1.199-1.44 0.961-2.72 2.188-3.815 3.526-0.456 0.556-4.034 6.177-1.616 5.585 1.73-0.422 4.97-2.813 5.629 0.055 0.396 1.722-0.51 5.925 1.801 6.556 0.351 0.096 0.71 0.082 1.071 0.027 0.342-1.71 0.65-3.426 0.924-5.146-0.051-0.037-0.108-0.052-0.154-0.097-1.461-1.451 1.058-6.853-2.427-6.223z"/>
      <path id="path663" fill="#fff" d="m35.079 51.123c0.151-0.578 0.336-1.14 0.441-1.616 0.717-3.25 1.308-6.527 1.77-9.824 0.45-3.218 0.765-6.458 1.015-9.697 0.126-1.634-0.083-3.659 0.451-5.234 1.078-3.173 5.898-1.933 8.4-1.779 1.84 0.111 3.682 0.225 5.52 0.337 0.53 0.031 2.463-0.169 2.961 0.16 0.102-0.366 0.196-0.733 0.302-1.098-0.007 0.351-0.047 0.844-0.092 1.416 0.248 1.082-0.023 4.857 0.065 5.368 0.436 2.487 2.575 2.34 4.668 2.737 0.509 0.097 1.081 0.15 1.556 0.275 0.98 0.015 1.94-0.014 2.793-0.026-0.488 0.174-1.146 0.416-1.891 0.667 0.073 0.197 0.091 0.438-0.01 0.763-0.87 2.82-1.43 5.741-1.84 8.66-0.414 2.958-0.408 6.053-0.609 9.083 0.506-0.038 1.011-0.087 1.515-0.131 0.061-0.831 0.1-1.664 0.168-2.494 0.454-5.47 1.134-11 2.821-16.243 0.8-2.487-2.922-5.846-4.424-7.486-1.953-2.129-3.223-3.342-6.021-3.528-3.648-0.244-7.293-0.488-10.94-0.732-2.375-0.16-6.862-1.025-6.982 2.65-0.175 5.332-0.59 10.687-1.331 15.967-0.527 3.754-0.988 7.864-2.001 11.642 0.564 0.059 1.129 0.11 1.695 0.163z"/>
      <path id="path665" fill="#A8A8A8" d="m36.368 22.707c-0.271 0.931-0.398 1.99-0.457 3.034-0.007 0.126-0.009 0.25-0.015 0.375s-0.013 0.251-0.017 0.374c0 0.042-0.003 0.084-0.004 0.125-0.009 0.335-0.015 0.659-0.021 0.974v0.033c-0.011 0.707-0.016 1.357-0.055 1.881-0.301 4.223-0.792 8.42-1.458 12.593-0.274 1.72-0.583 3.436-0.924 5.146-0.152 0.757-0.287 1.517-0.451 2.271-0.099 0.454-0.207 0.914-0.309 1.374 0.243 0.027 0.486 0.045 0.727 0.071 1.014-3.778 1.475-7.888 2.001-11.642 0.74-5.281 1.156-10.636 1.331-15.967 0.121-3.675 4.607-2.81 6.982-2.65 3.647 0.244 7.292 0.488 10.94 0.732 2.798 0.187 4.067 1.399 6.021 3.528 1.502 1.641 5.224 5 4.424 7.486-1.688 5.244-2.367 10.773-2.821 16.243-0.068 0.83-0.107 1.663-0.168 2.494 0.187-0.018 0.373-0.037 0.56-0.055 0.019-0.241 0.042-0.482 0.061-0.724 0.077-1.038 0.155-2.077 0.25-3.112 0.001-0.012 0.003-0.023 0.003-0.036 0.467-5.067 1.163-10.22 2.806-15.058 0.713-2.1-2.85-5.526-4.057-6.877-1.426-1.598-3.377-4.219-5.692-4.375-2.393-0.16-4.787-0.321-7.18-0.481-1.012-0.067-2.024-0.136-3.037-0.203-0.146-0.009-0.291-0.019-0.436-0.029-0.129-0.009-0.257-0.018-0.386-0.026-1.159-0.078-2.318-0.156-3.477-0.233-0.382-0.026-0.763-0.05-1.143-0.077-0.227-0.031-0.427-0.03-0.63-0.031-0.323-0.004-0.62 0.021-0.89 0.083-0.3 0.07-0.58 0.166-0.824 0.309-0.187 0.109-0.356 0.238-0.513 0.387-0.287 0.269-0.514 0.605-0.709 0.977-0.081 0.154-0.155 0.318-0.223 0.489-0.078 0.192-0.149 0.39-0.209 0.597z"/>
      <path id="path667" fill="#F4F2F2" d="m56.777 31.077c1.471 0.862 3.457 1.062 5.358 1.091-0.475-0.125-1.047-0.179-1.556-0.275-2.093-0.397-4.232-0.25-4.668-2.737-0.089-0.511 0.183-4.286-0.065-5.368-0.2 2.461-0.539 6.427 0.931 7.289z"/>
      <path id="path669" fill="#F4F2F2" d="m61.188 42.231c0.41-2.919 0.97-5.84 1.84-8.66 0.101-0.324 0.083-0.565 0.01-0.763-2.916 0.983-7.265 2.127-8.815 0.069-0.925-1.225 0.195-4.452 0.486-5.746 0.275-1.229 0.594-2.448 0.928-3.663-0.498-0.329-2.431-0.129-2.961-0.16-1.838-0.112-3.68-0.227-5.52-0.337-2.502-0.154-7.322-1.394-8.4 1.779-0.535 1.576-0.325 3.601-0.451 5.234-0.25 3.239-0.565 6.479-1.015 9.697-0.462 3.296-1.053 6.574-1.77 9.824-0.105 0.476-0.29 1.039-0.441 1.616 4.607 0.434 9.236 0.62 13.814 0.62 3.875 0 7.785-0.128 11.687-0.428 0.2-3.029 0.194-6.125 0.608-9.082z"/>
      <path id="path671" fill="#C6C6C6" d="m54.223 32.877c1.551 2.058 5.899 0.914 8.815-0.069 0.745-0.251 1.402-0.493 1.891-0.667-0.853 0.012-1.813 0.041-2.793 0.026-1.901-0.029-3.888-0.229-5.358-1.091-1.471-0.861-1.131-4.828-0.931-7.29 0.045-0.572 0.085-1.064 0.092-1.416-0.105 0.365-0.2 0.732-0.302 1.098-0.334 1.214-0.652 2.434-0.928 3.663-0.291 1.294-1.411 4.522-0.486 5.746z"/>
    </g>
  </g>
  <metadata>
    <rdf:RDF>
      <cc:Work>
        <dc:format>image/svg+xml</dc:format>
        <dc:type rdf:resource="http://purl.org/dc/dcmitype/StillImage"/>
        <cc:license rdf:resource="http://creativecommons.org/licenses/publicdomain/"/>
        <dc:publisher>
          <cc:Agent rdf:about="http://openclipart.org/">
            <dc:title>Openclipart</dc:title>
          </cc:Agent>
        </dc:publisher>
        <dc:title>Architetto -- Cestino pieno</dc:title>
        <dc:date>2009-04-29T20:29:41</dc:date>
        <dc:description>Trashbin icon by Francesco 'Architetto' Rollandin.</dc:description>
        <dc:source>http://openclipart.org/detail/25486/architetto----cestino-pieno-by-anonymous-25486</dc:source>
        <dc:creator>
          <cc:Agent>
            <dc:title>Anonymous</dc:title>
          </cc:Agent>
        </dc:creator>
        <dc:subject>
          <rdf:Bag>
            <rdf:li>bin</rdf:li>
            <rdf:li>clip art</rdf:li>
            <rdf:li>clipart</rdf:li>
            <rdf:li>full</rdf:li>
            <rdf:li>icon</rdf:li>
            <rdf:li>image</rdf:li>
            <rdf:li>media</rdf:li>
            <rdf:li>office</rdf:li>
            <rdf:li>png</rdf:li>
            <rdf:li>public domain</rdf:li>
            <rdf:li>recycle</rdf:li>
            <rdf:li>svg</rdf:li>
            <rdf:li>trashbin</rdf:li>
          </rdf:Bag>
        </dc:subject>
      </cc:Work>
      <cc:License rdf:about="http://creativecommons.org/licenses/publicdomain/">
        <cc:permits rdf:resource="http://creativecommons.org/ns#Reproduction"/>
        <cc:permits rdf:resource="http://creativecommons.org/ns#Distribution"/>
        <cc:permits rdf:resource="http://creativecommons.org/ns#DerivativeWorks"/>
      </cc:License>
    </rdf:RDF>
  </metadata>
</svg>
